<svg xmlns="http://www.w3.org/2000/svg" viewBox="0 0 138.1 51.28"><defs><style>.cls-1{isolation:isolate;}.cls-2{fill:none;}.cls-3{fill:#4d4d4d;}.cls-4,.cls-6{fill:#fff;}.cls-5{stroke:#656565;stroke-width:0;}.cls-10,.cls-11,.cls-12,.cls-13,.cls-5,.cls-6,.cls-7,.cls-8,.cls-9{stroke-linecap:round;stroke-linejoin:round;}.cls-10,.cls-11,.cls-12,.cls-13,.cls-6,.cls-7,.cls-8,.cls-9{stroke:#fff;stroke-width:2px;}.cls-14,.cls-7{fill:#9d9d9d;}.cls-15,.cls-9{fill:#656565;}.cls-12,.cls-13,.cls-15,.cls-18,.cls-19,.cls-9{mix-blend-mode:multiply;}.cls-10,.cls-16{fill:#e6e6e6;}.cls-11,.cls-17{fill:#b2b2b2;}.cls-12,.cls-18{fill:#989898;}.cls-13,.cls-19{fill:#ccc;}</style></defs><g class="cls-1"><g id="레이어_2" data-name="레이어 2"><g id="Layer_1" data-name="Layer 1"><path d="M122.31,20.33c2.28-1,6.56-2.69,5.7-4.36-2.77-1.49-4.95.72-7,1.27,4-5.22,4.07-15.74-3.32-16.12-.26,0-.41.23-.39.61.65,5.91-.8,14.2-1.77,20.88.61.79.91,1.85,2.44,1.89.68-3.93,3.43-5.31,6.55-6.25C124,19.16,122.85,19.41,122.31,20.33Z"/><path d="M98.93,17.33c.55.64,1.42,1,1.79,1.82-1.79,1.05-3.31,3.75-1.18,5.15,2.29-.25,3.41-5.1,6.49-5.6,2.85.85,4.16,3,6.83,4,3,0,.67-4.94.59-5.86-.07,4.33-3.78.46-4.17-1.08,1.22-2.75,4.44-3,5.51-5.69s-1.1-5.24-2.93-6.88c0-.2,0-.38-.29-.35-2,2.58-6.4,2.31-10.07,1.95.1,3.2,6.72,3.26,6.29,6.08-.58,2.08-4.26,4.87-6.23,6.42.06-.84-1.22-.59-1.17-1.43a10,10,0,0,0,3.82-5.21c-1.54-5-8.44,0-11.53-3.13-1.53,4.64,5.41,4.64,4.65,6.06-1.28,3.81-6.07,5.22-5.9,9.6C94.47,21.87,96,18.7,98.93,17.33Z"/><path d="M114.13,39.58c3.86-.85,3.14-5.29,5.67-7.33l.45-4.56c-2.56-5.2-7.27-.37-11.23.52.53-.81,3.16-2.55,2.54-2.38-1.84.56-3.45,1.21-4.56,2.83-3.57,6.22,6.26,2.47,8.82.56C117.46,29.66,115.46,36.62,114.13,39.58Z"/><path class="cls-2" d="M67.47,14c-1.83.74-4.45,2.95-3.94,5.61C65.31,19,68.43,16,67.47,14Z"/><path class="cls-2" d="M63.53,20.44c1.78-.64,4.9-3.74,3.94-5.88C65.64,15.34,63,17.66,63.53,20.44Z"/><path d="M67.48,5.05c-1.14,2.74,1.48,4.66.72,7.83-4.66-.8-8.68,5.25-5.87,9.1C71.92,27.34,77.49,7.87,67.48,5.05Zm-4,15.39c-.51-2.78,2.11-5.1,3.94-5.88C68.43,16.7,65.31,19.8,63.53,20.44Z"/><path d="M57.73,1.85C53,5.93,49,15.66,51.82,21.54c1.11.56,2,1.6,3.36,1,.37,1.48,1.38,1.77,2.73,1.36.23-3.28-.83-6.48.36-10.75.77-2.78,2.45-5.49,2.88-8.65A11.93,11.93,0,0,1,60,2.25C59.19,2.08,58.24,1.55,57.73,1.85Z"/><path d="M86.47,34.64c-3.65,0-9.1,3.08-12.85,5.21-2.06,1.17-4,2.46-5.83,3.59C67.66,43.5,63.4,45.7,63,45s8.48-6.7,8.48-6.7c2.54-1.25,5.19-3.38,6-6.08.08-.92-1.6-.48-2.08-1,1-.94,2.33-1.6,2.78-3.12.14-1.19-1-1.05-1.39-1.74,4-2,11.27-3.5,11.45-5.55-.46-4.32-5.84-3.19-9-3.13C82.72,13.05,87,4.91,79.52,1c.67,7.19-7.44,14.69-1.38,21.18l-.37.36c-2.06,1.66-10.55,5.11-13,5.87-2.7.82.18,3.11,1.3,3.83s3.44,0,3.44,0c1.65-1.59,2.87-3.6,5.55-4.16-1.05,1.61-4.66,3.24-4.14,5,5.41.58,1.72,1.7-1.07,4-3.54,2.92-11.06,7-10.41,9.72.7,1.49,3,1.07,4.36.46-.32.36,0,.23,1.08-.62a15.55,15.55,0,0,0,1.45-1.15l.3-.25A40.63,40.63,0,0,1,75.16,40c.39-.16,8.22-3.31,12.51-2.79,0,0,2,0,1.92-.81C89.7,34.12,87.85,34.63,86.47,34.64Z"/><path d="M132.81,49.87h0l0,.14Z"/><path d="M129.12,49.09l0,0S129.07,49.13,129.12,49.09Z"/><path d="M137.56,43.43l0,0S137.58,43.43,137.56,43.43Z"/><path d="M135.27,28.49h0a.07.07,0,0,1,0,0Z"/><path d="M135.39,28.49s-.08,0-.1,0a.23.23,0,0,0,.16.21C135.5,28.64,135.4,28.56,135.39,28.49Z"/><path d="M135.39,28.49v0A0,0,0,0,0,135.39,28.49Z"/><path d="M127,30.1l-.11-.08A.33.33,0,0,0,127,30.1Z"/><path d="M126.61,46.86s.06,0,.07-.08h0Z"/><path d="M126.18,42.77h0a.64.64,0,0,0,0,.38h.16Z"/><path class="cls-3" d="M125.9,44.25c.09.53.18.79.24,1.06s.1.57.27,1.14l0-.14c.17.17.34.32.22.47a15.26,15.26,0,0,1,1,1.73l.24-.14c.11.1.08.56.35.3l.33.07c.17.13.35,0,.49.28h0s0,0,0,0,0,0,0,0c.39.29.08-.21.52.12.1.23.28-.25.5-.13,0,.15.1.28.15.43a.55.55,0,0,0,.54.09,2.48,2.48,0,0,1,.7-.11c.31.14.5.44.27.74.31-.36.15-.23.54-.43.08.13,0,.17,0,.31.4.11.22-.15.5-.19,0-.28,0-.71.11-.74l-.11-.06a1.05,1.05,0,0,1,.79-.31l0,.13.28-.19.08.15c.14-.08.28-.16.41-.25h-.08a1.87,1.87,0,0,1,.59-.35l0,.08a1,1,0,0,0,.71-.48c.17-.24.29-.53.49-.8l.09.19c.3-.07-.19-.23.05-.4l.2.13c-.11-.38.24-.23.43-.33l-.3-.09.22-.25c.25-.27.45,0,.57.1,0-.11-.07-.22-.11-.34l.27.07c-.22-.3.13-.16.08-.54.11,0,.14.11.22,0a4.51,4.51,0,0,0-.22-.65c0,.12.06.25.08.37l-.37-.15c-.21-.39.15-.42.08-.67l.09.18c0-.4.14-.39.25-.6-.08.06-.2.15-.24,0s.15,0,.2-.16a.37.37,0,0,1-.28-.2.47.47,0,0,1,0-.17.25.25,0,0,1,.05-.13.15.15,0,0,1,.1,0s-.11-.07-.05-.14l.3,0-.28-.14c.08-.1-.14-.24.06-.23l.06.06.08-.73H138c-.32-.07.13-.39-.28-.37.22-.14-.16-.54.3-.46,0-.48-.41-.73-.18-1.32.39-.2.26-.77.3-1.14-.16-.73-.31-1.2-.43-1.94.54-.45-.19-1.12.12-1.6l-.22-.13c.35-.32-.07-.81.26-1.26a1,1,0,0,1-.13-.19s0,.05-.19.06c.1-.13,0-.39.25-.37l0,0c.27,0-.13-.39.11-.53l-.3.08a1.43,1.43,0,0,0,.05-.28l.06.1a5.77,5.77,0,0,1-.33-1c-.06-.3-.1-.57-.15-.84a2,2,0,0,0-.93-1.52c.37,0-.3-.13,0-.35a.34.34,0,0,0-.26-.46c-.18-.06-.41,0-.55-.09l-.06,0c-.11-.12-.24-.24-.36-.35.25-.08.12-.07,0,0s-.28.06-.06,0a3.5,3.5,0,0,0-2-1.05,8.8,8.8,0,0,0-2.4-.07l.08.1c-.39,0-.81.31-1.15.25a.38.38,0,0,0-.38.25,2.53,2.53,0,0,1-.17.34c-.17.32-.61.16-.49.1a1.5,1.5,0,0,0-.27.48.8.8,0,0,1-.41.44c-.18-.08-.34.22-.45.5s-.18.55-.36.44l0,0a1,1,0,0,0-.43.75,1.9,1.9,0,0,1-.3.85.2.2,0,0,1,0-.05A4.92,4.92,0,0,0,127.38,33l.21,0V35.2a8.68,8.68,0,0,0-.48.82c-.21.21,0,.46,0,.71-.06.41-.24.2-.39.41s.2,0,.21,0l-.23.3c0-.17-.12-.08-.19-.05,0,.27-.33.68,0,.76-.16.36-.29.36-.31.51.06-.05.12-.15.18-.15-.14.14,0,.06.07,0,.15.21-.6,1.12-.24,1.16h-.06c.27.06.53,0,.68.13l-.12.1.12.15c-.09.1-.16,0-.2,0,.13.25,0,.59-.06.89l.74-.31c-.17.25-.52.7-.28.75l-.25.16c-.47.5.21.35.07.55l-.27.26V42.2a2.35,2.35,0,0,1-.4.56h0l0,0v0a.31.31,0,0,1,.22.35,1.58,1.58,0,0,0,0,.37,1.44,1.44,0,0,1-.12.63l.29.09c0,.14-.06.28-.09.41l-.22.05c0-.2-.1-.48-.14-.78l0-.23v-.21c0-.11,0-.22,0-.31H126a1.86,1.86,0,0,0,0,.34,1.4,1.4,0,0,1,0,.39c0,.1-.24.39-.4.21Z"/><polygon points="126.52 41.07 126.52 41.05 126.36 41.12 126.52 41.07"/><path d="M126.46,37.44a.16.16,0,0,0,0-.15C126.39,37.46,126.42,37.47,126.46,37.44Z"/><path class="cls-4" d="M136,44.6c.56-.24,1.61-.65,1.4-1.06-.68-.37-1.21.17-1.73.31,1-1.28,1-3.85-.81-4-.06,0-.1.06-.09.15a22.94,22.94,0,0,1-.44,5.11c.16.2.23.45.6.46a1.92,1.92,0,0,1,1.61-1.53C136.36,44.32,136.09,44.38,136,44.6Z"/><path class="cls-4" d="M130.24,43.87c.13.16.34.25.44.45-.44.25-.81.91-.29,1.26.56-.07.83-1.25,1.59-1.38.7.21,1,.73,1.67,1,.72,0,.16-1.21.14-1.44,0,1.06-.92.12-1-.26.3-.68,1.09-.73,1.35-1.4s-.27-1.28-.72-1.68c0,0,0-.09-.07-.09-.49.64-1.56.57-2.46.48,0,.79.68,1.06,1,1.63a3.28,3.28,0,0,1-1,1.43c0-.2-.3-.14-.28-.35a2.51,2.51,0,0,0,.93-1.27c-.38-1.23-2.06,0-2.82-.77a1.3,1.3,0,0,0,1.14,1.48c-.32.94-1.49,1.28-1.45,2.35C129.15,45,129.51,44.21,130.24,43.87Z"/><path class="cls-4" d="M134,49.31c.94-.2.77-1.29,1.39-1.79,0-.37.07-.74.11-1.11-.63-1.28-1.78-.1-2.75.12.13-.2.77-.62.62-.58a2,2,0,0,0-1.12.69c-.87,1.53,1.54.61,2.16.14C134.78,46.89,134.28,48.59,134,49.31Z"/><path class="cls-4" d="M130.34,33.84c2.34,1.25,3.71-3.3,1.26-4-.28.63.36,1.08.17,1.82A1.43,1.43,0,0,0,130.34,33.84Zm1.26-1.73c.23.5-.53,1.22-1,1.37C130.51,32.83,131.15,32.29,131.6,32.11Z"/><path class="cls-4" d="M128.59,34c.09.35.33.42.67.32a9,9,0,0,1,.08-2.51,14.52,14.52,0,0,0,.71-2,3.44,3.44,0,0,1-.3-.53c-.18,0-.41-.16-.54-.09-1.15.95-2.14,3.22-1.44,4.6C128,33.87,128.26,34.11,128.59,34Z"/><path class="cls-4" d="M136.24,37.16a8.38,8.38,0,0,0-3.14,1.28c-.5.29-1,.6-1.43.88,0,0-1.07.55-1.18.38s2.08-1.64,2.08-1.64A2.78,2.78,0,0,0,134,36.57c0-.23-.4-.12-.51-.25.25-.24.57-.4.68-.77s-.26-.25-.34-.42c1-.5,2.76-.86,2.8-1.36-.11-1.06-1.43-.78-2.21-.77.87-1.12,1.91-3.11.09-4.08.16,1.76-1.83,3.6-.34,5.19l-.09.08a16.41,16.41,0,0,1-3.2,1.44c-.66.2.05.76.32.94s.84,0,.84,0c.4-.39.71-.88,1.36-1-.26.39-1.14.79-1,1.23,1.32.14.42.42-.26,1-.87.71-2.71,1.72-2.55,2.38.17.36.74.26,1.06.11-.07.09,0,.06.27-.15a3.07,3.07,0,0,0,.35-.28l.08-.06a10,10,0,0,1,2.1-1.29,8.42,8.42,0,0,1,3.06-.68s.48,0,.47-.2C137,37,136.58,37.16,136.24,37.16Z"/><polygon class="cls-2" points="109.17 43.79 109.1 43.64 108.52 43.71 108.16 43.68 107.86 43.95 107.79 44.14 108.37 44.22 108.55 44.69 108.99 43.98 109.17 43.79"/><polygon class="cls-2" points="91.87 44.31 91.65 44.4 90.61 44.57 90.46 44.73 90.59 45.56 91.33 45.54 91.8 45.27 91.87 44.31"/><path class="cls-2" d="M102.11,43h0l0-.12-.49-.63h-.76l-.07,0-.19.11c-.18.1-.24.19-.18.25v.67c.07.1,0,.16,0,.23l.15.06.15.12a1.74,1.74,0,0,1,.15.26h0A1.41,1.41,0,0,0,102.11,43Z"/><path class="cls-2" d="M101.35,47.49l-.24-.8-.5-.92-.17-.36c-.1-.26-.24-.26-.42-.12l-.32.27-.24.8.35,1.08.44.47.86.08C101.67,47.82,101.58,47.67,101.35,47.49Z"/><path d="M87.65,46.64l-.24-.25-1.36.14-.72,0-.25,0-.46.1-.08-.15a.32.32,0,0,1-.42-.2H83.4l-1.6.37-.44.21.19.57.27,0,.32-.14,1.22-.09.16.07,0,.34-.29.07-.21.11L81.74,48l-.56,1.3,0,.54.36.2,1.14,0,1.08-.22.82.05.47.11.15-.14,0-.68-.47-.26-.94.08-1.35.26s0-.09,0-.14V49a.22.22,0,0,1,0-.08.26.26,0,0,1,.13-.25h1.3l.17-.21.34-.26.41-.21v-.35l1.33-.17a1.93,1.93,0,0,1,0,.42l0,.12,0,.11c0,.08,0,.16,0,.25v.26l.14.13L86,49.1v.81l1.48-.4,0-1.42,0-.27a.69.69,0,0,1,.06-.13.56.56,0,0,1,.07-.13l.05-.11,0-.09s-.07-.12-.07-.28A1.46,1.46,0,0,1,87.65,46.64Z"/><path d="M87.73,43.73c-.18,0-.35.07-.5.08l-.57.16-.11-1.76-.21-.41-.83.08-.18.22v.37l.39-.06a.12.12,0,0,0,.1.06c.06,0,0,.22,0,.24a4.61,4.61,0,0,1-.13.46s-.53,0-.44-.13l0,0,.06.29-.09.22h0l-1.08,1-1.42.28-.83.34h0c.25-.1.17.31.09.34a2.84,2.84,0,0,1-.8-.07,4.69,4.69,0,0,1,0-.65l.41.16V43.82l.28,0,0-.28.25.08.18,0,1.19-.18.21-.57.09-.39-.81-.1-1.19.07-.76.08-1-.17-.09.43c.15.1.29.21.17.4l.13.07.47.49-.28,1.07-.06,1.57,1,.15,2.28-.72.86-.68.85-.93,0,.79,0,.23,0,.06,0,.15v.43l.16.18.51.1.52,0,0-.51.13-.72.11-.13.41.06a3.76,3.76,0,0,0,.51.06l.75-.31.08-.7-.26-.22A3.62,3.62,0,0,0,87.73,43.73Z"/><path d="M95.73,48.79l-2.84.56c0-.19.06-.45.25-.53l1.61-.21.19-.24.49-.19.47-.24,0-.89a1.55,1.55,0,0,0-.15-.58l-.93,0-.74-.15-1.84.31a1,1,0,0,0-.5.24v.77l.29,0,.58-.26,1.56-.2.19.09,0,.48-2.32.38-.68,1.27,0,.85,1.9-.07c.2,0,.42-.12.64-.16l.69-.17,1.94.05,0-1a4.13,4.13,0,0,1-.49-.07A4.09,4.09,0,0,0,95.73,48.79Z"/><path d="M96.74,43.59a3.16,3.16,0,0,0-.45.09l-.35.1a.18.18,0,0,1-.14.19c-.07,0-.12,0-.08-.09l-.1-1.77-.21-.4-.84.07-.18.23v.31c0-.26.51-.25.53-.21s.1.78.1.82a5.87,5.87,0,0,1-.52.39l-.12-.49-.1.15.06.28-.09.23.09.19,0,1.22,0,.23,0,.07,0,.15v.42l.16.19.51.09.51,0,0-.5.13-.72.1-.14.42.06a3.61,3.61,0,0,0,.5.06l.75-.3.09-.71-.26-.21C97.12,43.56,96.93,43.56,96.74,43.59Z"/><path d="M92.27,46h.21l.56-.09.26-.33,0-.28-.46-.21,0-.14.45-1.09,0-.87.11-.19-.05-.57-.2-.19h-.76l-.14.14,0,.55-.09.08-.18.88-.19-.15-.63.09,0,.13-.73.13-.08-.66L90.22,43l0-.17,0-.47-.87-.15-.48.38L89.2,44l.06.11,0,.48.07.42,0,.47,0,.44.25.55.6,0,.74-.16.17,0,.42-.09Zm-1.68-.4-.13-.83.15-.16,1-.17.22-.09-.07,1-.47.27Z"/><path d="M102,44.09l0,0-.13.08Z"/><path d="M104.46,48a4.31,4.31,0,0,1-.54,0c-.51-.07-.74-.2-.73-.36s0-.31-.07-.34.08-.07.27-.18.29-.19.28-.33.11-.16.37-.32a.85.85,0,0,0,.42-.72s.05-.09.11-.19.05,0,0-.07,0-.15-.11-.23-.15-.17-.2-.14a2.73,2.73,0,0,1-.55-.08c-.31-.1-.5-.12-.56,0s-.27.39-.17.45.27,0,.47,0,.1.15.09.15-.11.16-.24.51a2.83,2.83,0,0,1-.2.54,1.2,1.2,0,0,0-.28.17c-.14.12-.27.2-.32.24l-.46-1.46-.42-.23a1.71,1.71,0,0,0-.19-.41,2.77,2.77,0,0,0-.21-.46l.66-.34a4.47,4.47,0,0,1-1.11.35l.17-.55a1.74,1.74,0,0,0-.15-.26l-.15-.12-.15-.06c-.05-.07,0-.13,0-.23V42.6c-.06-.06,0-.15.18-.25l.19-.11.07,0h.76l.49.63,0,.12.48.13h0l.16-.35,0-.44-.26-.57-1.29-.18-1.1.34-.9.92L99.37,44c.12.09.12.11.14.15s.07.09,0,.13l.3.27-.48.71-1.09.9-.19.85L99,48.36l1.26.38,1.34-.2.59-.42c.11,0,.21,0,.21,0s.08.11,0,.22c.14.1.25.15.36.11a.24.24,0,0,1,.28.11h1.74l.17-.42-.17-.21Zm-3.35,0-.86-.08-.44-.47-.35-1.08.24-.8.32-.27c.18-.14.32-.14.42.12l.17.36.5.92.24.8C101.58,47.67,101.67,47.82,101.11,48Z"/><path d="M108.83,46.33l.25-.61,0,0s0,0,.08-.08l.08-.05,0,0,.25.16.3-.27.31.27-.08.35-.16-.1h0l.49.42a.27.27,0,0,0,.32,0l.35-.42a1.77,1.77,0,0,0-.82-.83,2.66,2.66,0,0,1-.69,0h-.08l.1-.05a.19.19,0,0,1,.06-.17.76.76,0,0,1,.2-.13c-.08,0,0-.09,0-.17s0-.06.08-.1l.08-.09.28-.06.23-.6a.24.24,0,0,1,.06-.1l.07-.11a.2.2,0,0,1,0-.09.36.36,0,0,0,.08-.13v-.12a.37.37,0,0,0,0-.12l0-.06a.43.43,0,0,1,0-.07.3.3,0,0,1-.07-.15l-.59-.26-.38.08h-.54l-.85.07.13-.32-.51-.16-.58.1-.45-.13-1,.11-.52.12.1.75h.08l0,0s.13,0,.37,0l.34-.12.74.13,0,.22-.15.32-.44.42-.22.52a.76.76,0,0,1-.33.32.08.08,0,0,0,0,.07.56.56,0,0,0,0,.07.17.17,0,0,1-.05.13l-.25.19,0,.51.7.28a.16.16,0,0,1,.09-.09l.18-.11a.92.92,0,0,0,.4-.44l.36-.7.47.55c.15,0,.24.09.26.15l-.29.38-.06.42.42.48.53,0A3.16,3.16,0,0,1,108.83,46.33Zm-.46-2.11-.58-.08.07-.19.3-.27.36,0,.58-.07.07.15L109,44l-.44.71Z"/><path d="M112.88,47l-.24-.25-1.35.1-.54-.08-.38.08c-.2,0-.43.09-.54.1l-.64.14-.41.09-.26.07c-.09,0-.09.25,0,.72l.4.24.67-.13.37-.22.17.12,1.21-.25c.2,0,.3,0,.27.12a.54.54,0,0,1-.14.22.46.46,0,0,0-.13.26,1.36,1.36,0,0,0,0,.27,4.15,4.15,0,0,0,0,.7c0,.33,0,.65.41.67a4.47,4.47,0,0,0,.54,0,1.7,1.7,0,0,0,.26,0c.08,0,.17-.49.26-1.44l0-.26c0-.09.09-.18.12-.27a1.19,1.19,0,0,0,.1-.2s-.06-.12-.07-.28A1.46,1.46,0,0,1,112.88,47Z"/><path d="M113.7,43.91h-.3l-.45.2-.16-.09.07-1.31a.71.71,0,0,0,0-.38.22.22,0,0,0-.27-.17l-.68.09-.26.4,0,.61.08.55-.08,1,.09.26-.07,1.16h.63l.46-.18,0-.75.2-.34.56,0,.75-.32.1-.78-.33,0Z"/><path d="M123.11,44.24l0-.52-.7-.33-.44.22,0,.37-.18.31,0,.35-.15.2-.43.53-.27.08-.16.06-.1,0c0-.05,0-.12.09-.16a1.31,1.31,0,0,0,.16-.14,4.71,4.71,0,0,0,.13-.76c0-.18,0-.42.07-.72l-.08-.44-1.13-.11-.12.28,0,1.45-.14.66,0,.57-1.41.57-1.26.43c-.2.05-.36,0-.34-.22l.06-.84h0a.4.4,0,0,1,.31.19l1.13-.21.57-.18.19-.24V45h-.77l-1.46.41,0-.65-.54.21s0-.55,0-.84.41,0,.46,0,.51.31.26.34l2.06-.28v-.94l-.76-.2-1.58.4-1.61-.1-.2.57.27.31.42.19-.29,2,.09,1.17a1.37,1.37,0,0,1,.83.78l.81,0,1.48-.79.76-.15c-.09-.26.13-.53.44-.76h0c0,.87,0,1.33,0,1.36a.24.24,0,0,0,0,.12c0,.07.05.16.16.15l.48,0,.32,0,.49-1.81.64-.49.12-.34c.08,0,.15.09.16.16l-.12,2.12.14.26.67.19.4-.52.18-3A.7.7,0,0,1,123.11,44.24Z"/><path d="M102.11,43h0a1.41,1.41,0,0,1-1.15,1h0l-.17.55a4.47,4.47,0,0,0,1.11-.35h0l.13-.08a2.15,2.15,0,0,0,.55-1h0Z"/><polygon points="110.16 45.66 109.85 45.39 109.55 45.66 109.55 45.66 109.92 45.91 110.08 46.01 110.16 45.66"/><path d="M116.68,44.17c-.05,0-.44-.28-.46,0s0,.84,0,.84l.54-.21a.22.22,0,0,1,.18-.29C117.19,44.48,116.74,44.18,116.68,44.17Z"/><path d="M95,42.93s-.08-.77-.1-.82-.53,0-.53.21,0,.51,0,.51l.12.49A5.87,5.87,0,0,0,95,42.93Z"/><path d="M85.68,43.17a4.61,4.61,0,0,0,.13-.46s.06-.23,0-.24a.12.12,0,0,1-.1-.06l-.39.06a1.47,1.47,0,0,1-.08.57C85.15,43.14,85.65,43.2,85.68,43.17Z"/><path d="M81.14,45.49a2.84,2.84,0,0,0,.8.07c.08,0,.16-.44-.09-.34h0c-.25.1-.3-.22-.3-.22l-.41-.16A4.69,4.69,0,0,0,81.14,45.49Z"/><path d="M11.3,34.54c.07-.17-.05-.24-.06-.38C11.12,34.21,11.11,34.53,11.3,34.54Z"/><path d="M8.13,32.71c.27,0,.12-.61-.05-.57C7.92,32.38,8.26,32.47,8.13,32.71Z"/><path d="M9.57,35c0,.19.23.3,0,.46.09.07.11.2.24.13,0-.37.49-.37.71-.26,0-.32-.39,0-.72-.19-.11-.12,0-.34-.16-.44C9.5,34.81,9.85,35,9.57,35Z"/><path d="M12.38,34.25c.1-.2,0-.27-.14-.38a.44.44,0,0,0-.14.18C12.32,34.05,12.18,34.25,12.38,34.25Z"/><path d="M9,28.77c-.1.09-.13.18,0,.24C9.1,28.91,9.13,28.83,9,28.77Z"/><path d="M11.23,35.75c0-.14-.14-.21-.22-.31C11,35.57,11,35.73,11.23,35.75Z"/><path d="M13,35.74c.08-.22,0-.34-.19-.37C12.82,35.55,12.85,35.7,13,35.74Z"/><path d="M11.17,36.27l.21,0c.08-.15-.11-.12,0-.27C11.26,36.07,11.23,36.19,11.17,36.27Z"/><path d="M7.41,29.08c.11.13.18-.1.28,0C7.73,28.93,7.46,28.91,7.41,29.08Z"/><path d="M11.21,17.62c.17,0,.13-.1.22-.14s-.39-.17-.14-.23c0-.05,0-.05-.06-.05l0-.09a.31.31,0,0,1-.19.08C11.06,17.35,11.17,17.42,11.21,17.62Z"/><path d="M11,29.47c.15,0,0-.11.15-.09,0-.12-.3-.21-.1-.37A.25.25,0,0,0,11,29.47Z"/><path d="M7.79,31.68a.82.82,0,0,1,.33.18c.12-.11,0-.15.1-.25-.31-.06-.12-.25-.29-.35C7.83,31.41,8,31.51,7.79,31.68Z"/><path d="M10.92,30.25c.1-.1.12-.18,0-.22S10.79,30.2,10.92,30.25Z"/><path d="M11.34,31.89c.16,0,.09.13.26.14S11.46,31.67,11.34,31.89Z"/><path d="M7.79,30.43c.12-.16,0-.28-.12-.39C7.68,30.18,7.65,30.32,7.79,30.43Z"/><path d="M10.41,35c0-.08,0-.1,0-.16l-.4-.12C10,34.89,10.27,35.08,10.41,35Z"/><path d="M12.35,36.44l0,.2c.11,0,.14-.12.25-.13s-.1.08-.06.2c.14-.05.38,0,.41-.17-.11,0-.13.09-.27,0s.07-.09.13-.09-.1-.12-.22-.12S12.44,36.44,12.35,36.44Z"/><path d="M12.07,38.53c0-.16-.11-.19-.11-.33C11.81,38.28,11.91,38.55,12.07,38.53Z"/><path d="M10.78,37.84c0,.21-.23.16-.12.31s.1-.22.21-.24,0,.19.12.23,0-.18.06-.26Z"/><path d="M11.41,38.25c0-.14,0-.23-.12-.23s-.08.1-.09.21Z"/><path d="M12.24,39.4c-.06.15.09.12.08.23.09-.09.16-.19.29-.21v.11c.21-.23-.21-.31-.22-.5C12.16,39.11,12.64,39.45,12.24,39.4Z"/><path d="M11.58,38.54c0,.13.06.17.07.28C11.86,38.8,11.76,38.54,11.58,38.54Z"/><path d="M12.87,39.58c.06,0,.05-.09.07-.16h-.22C12.68,39.65,12.86,39.49,12.87,39.58Z"/><path d="M12.22,39c0-.07,0-.15.08-.15-.13-.18-.17-.29-.39-.3C12.11,38.64,12,38.94,12.22,39Z"/><path d="M12.71,37.35c0-.18-.32-.15-.13-.37C12.28,37.08,12.38,37.5,12.71,37.35Z"/><path d="M12.26,37c0-.22-.14-.21-.33-.14C12,37.07,12.14,36.81,12.26,37Z"/><path d="M10.87,37c0,.25.27.29.26.54.06,0,.06-.1.13-.1C11.29,37.16,10.94,37.16,10.87,37Z"/><path d="M13.38,38.31c.11,0,.08-.15.17-.15h.16l0-.16c-.18,0-.26.1-.43.11C13.21,38.27,13.46,38.15,13.38,38.31Z"/><path d="M14.09,38.41c.05-.19-.14-.16-.29-.15C13.75,38.43,14,38.34,14.09,38.41Z"/><path d="M11.47,37.66c0,.18-.18,0-.15.2a.27.27,0,0,0,.32,0C11.66,37.76,11.61,37.68,11.47,37.66Z"/><path d="M12.51,37.81A4.53,4.53,0,0,1,13,38a2,2,0,0,0,0-.36l-.26,0C12.65,37.77,12.61,37.83,12.51,37.81Z"/><path d="M15.37,35c.1-.16-.17-.07-.22,0S15.32,35.1,15.37,35Z"/><path d="M6.72,21.17c.23,0,.22-.35.2-.54A.9.9,0,0,0,6.72,21.17Z"/><path d="M8.24,29a.35.35,0,0,0,.25.1c.09-.1,0-.07-.05-.09-.06-.26,0-.49-.26-.57C8.13,28.64,8.37,28.8,8.24,29Z"/><path d="M15.11,34.68c.13,0,.09-.15.22-.1s-.05-.1-.16-.08Z"/><path d="M11.41,39c.17,0,.18-.09,0-.27a.16.16,0,0,0-.13.15c-.11-.21-.22-.63-.45-.6.05.28.17.37.05.67.14.12.19.31.52.28a.6.6,0,0,0-.3.19.47.47,0,0,0,.2.24c.1,0,.23,0,.28-.09.08.16.16,0,.2.23C12,39.4,11.56,39.07,11.41,39Z"/><path d="M8.73,21.18c.15-.09-.07-.32-.23-.18C8.54,21.16,8.64,21.15,8.73,21.18Z"/><path d="M8.2,20.91c0,.07-.17.12,0,.25l.14-.07Z"/><path d="M8.8,21.49c.28.17.21-.21.22-.33C8.86,21.1,9,21.44,8.8,21.49Z"/><path d="M9.9,16c0-.15.15-.26.18-.41C9.91,15.49,9.81,15.93,9.9,16Z"/><path d="M11.71,15.83c.13.22.21,0,.23-.12C11.79,15.54,11.89,15.89,11.71,15.83Z"/><path d="M16,17h0l.1-.13A.12.12,0,0,0,16,17Z"/><path d="M8.8,21.2c-.1,0-.23,0-.32,0s.17.14.22.24C8.78,21.36,8.89,21.31,8.8,21.2Z"/><path d="M13.47,15.36c.18.12.32-.14.42-.22C13.67,15,13.63,15.33,13.47,15.36Z"/><path d="M8.42,16.37c-.12,0,0,.23,0,.33S8.51,16.41,8.42,16.37Z"/><path d="M10.66,17.14a.54.54,0,0,0,.6-.55c.07.08.2.12.27,0-.15-.2,0-.15.13-.32-.1-.18,0-.27-.09-.35s-.24.2-.05.21c-.07.11-.19,0-.06.21-.06,0-.08-.11-.18-.08s-.07.14.07.25a.36.36,0,0,1-.3-.12A.76.76,0,0,1,10.66,17.14Z"/><path d="M13.09,14.85s.1.14,0,.15a.48.48,0,0,0,.45-.43C13.34,14.61,13.33,14.83,13.09,14.85Z"/><path d="M10.54,17.74c.12-.12,0-.19-.07-.36-.06.07-.08.17-.14.24S10.5,17.65,10.54,17.74Z"/><path d="M8.46,26.25a.22.22,0,0,0,.1-.41C8.32,26,8.63,26.11,8.46,26.25Z"/><path d="M8,26c-.14.09-.11.27.07.28C8.08,26.18,8.2,26.09,8,26Z"/><path d="M11.06,26.51a.42.42,0,0,0-.1-.44A.36.36,0,0,0,11.06,26.51Z"/><path d="M8.13,25.86c-.22,0-.23-.11-.38-.3.1,0,.18,0,.28-.09-.06-.09-.12-.08-.19-.12-.14.14-.3.23-.22.45.09,0,.08-.05.12-.1,0,.1,0,.19.14.29S8.12,26,8.13,25.86Z"/><path d="M6.69,21.56c.17-.09,0-.26-.05-.41C6.49,21.24,6.67,21.42,6.69,21.56Z"/><path d="M8,27a.3.3,0,0,0-.16.22C7.92,27.29,8.13,27.07,8,27Z"/><path d="M8,26.8c.15-.11-.1-.21-.11-.32A.26.26,0,0,0,8,26.8Z"/><path d="M8.18,27.92c.06.09,0,.18.17.26a.31.31,0,0,0,.19-.12c-.18-.12-.12-.17,0-.24-.16-.11-.16-.05-.25-.19C8.29,27.72,8.34,27.81,8.18,27.92Z"/><path d="M8.72,24.83c.15-.27.23-.24.4-.33C8.89,24.39,8.5,24.59,8.72,24.83Z"/><path d="M8.23,25s.11,0,.16-.06l-.17-.19C8,24.81,8.35,24.92,8.23,25Z"/><path d="M11.42,24.78a.2.2,0,0,0,.25,0c-.1-.11,0-.21-.15-.33C11.28,24.52,11.49,24.67,11.42,24.78Z"/><path d="M8,24.62c-.12,0-.36.14-.18.26C7.9,24.74,8.12,24.81,8,24.62Z"/><path d="M8.25,25.76a.82.82,0,0,0,0-.7C8.07,25.29,7.88,25.71,8.25,25.76Z"/><path d="M8.56,25.84a.36.36,0,0,0,.2-.09c-.23-.07,0-.11-.18-.25C8.43,25.6,8.42,25.72,8.56,25.84Z"/><path d="M7.64,28.65c-.12,0-.18.23,0,.29C7.73,28.83,7.57,28.75,7.64,28.65Z"/><path d="M31,7.06c-.07-.09,0-.14-.05-.22,0,.1-.23.17-.41.13C30.64,7.2,30.81,7.16,31,7.06Z"/><path d="M21.22,5.62c.05,0,.11,0,.17,0s0-.16-.12-.22l-.16.24C21.16,5.71,21.19,5.65,21.22,5.62Z"/><path d="M23.31,5.84c0,.07,0,.13,0,.2s-.22,0-.2-.09-.11.12-.24.23a2.49,2.49,0,0,0,.61,0C23.59,6,23.5,5.79,23.31,5.84Z"/><path d="M24.09,6.09A.24.24,0,0,0,24.43,6a.23.23,0,0,0-.34,0S24.11,6.06,24.09,6.09Z"/><path d="M26.5,5.67c0-.09-.1,0-.15,0a.09.09,0,0,1,0-.12c-.16,0-.21.07-.43.11A.92.92,0,0,0,26.5,5.67Z"/><path d="M10.16,37.62c-.08,0-.06.15-.15.14a.37.37,0,0,1,0-.45c-.18-.07,0-.35-.31-.35.1-.12-.09-.26.07-.27,0-.21-.21,0-.25.11s.11.23,0,.45c-.15,0,0-.21-.17-.21s.1.21-.1.15a1,1,0,0,0,.14.37c-.05.08-.07,0-.17,0-.08.17,0,.22,0,.3.15-.15.09,0,.27.06a.3.3,0,0,0,.11-.2c.07,0,0,.16.07.18s-.14,0-.15.14C9.92,38,10.16,38,10.16,37.62Zm-.69-.21c.14.08,0-.26.16-.19s.08.16,0,.3C9.59,37.49,9.47,37.49,9.47,37.41Z"/><path d="M25.63,5.84c-.07-.08-.13,0-.19-.12.11,0,.23-.09.34,0,0-.19-.41,0-.57-.11a1.71,1.71,0,0,0,.16.55C25.36,6,25.52,5.91,25.63,5.84Z"/><path d="M26,5.77c-.19.14,0,.29-.05.43a.22.22,0,0,1,.15.08A.43.43,0,0,0,26,5.77Z"/><path d="M7.91,39.07c.07-.1.29.06.1.09a.36.36,0,0,0,.34.08c-.09-.26-.16-.17-.23-.35C8,38.91,7.92,38.92,7.91,39.07Z"/><path d="M20.69,10.15c-.15.08-.05.33-.21.27C20.57,10.74,20.93,10.32,20.69,10.15Z"/><path d="M21.75,6.24c-.09.18.19.17.28.07C21.9,6.12,21.86,6.37,21.75,6.24Z"/><path d="M37.56,9.5c0-.21-.13-.16-.19-.24C37.24,9.36,37.43,9.55,37.56,9.5Z"/><path d="M20.93,6.62c.05-.12-.22-.19-.28-.18s0,.15-.06.22c-.22-.12.14-.39-.09-.51,0,.14-.18.33,0,.5-.12,0-.28-.24-.29.08-.14-.17-.55,0-.58.17s.38,0,.53-.07C20.12,7.45,20.68,6.53,20.93,6.62Z"/><path d="M20.79,6.33c0-.21.09-.27.31-.2,0-.07-.1-.11-.16-.16C20.82,6.07,20.61,6.14,20.79,6.33Z"/><path d="M20.3,6.29c-.23-.08-.38.11-.53.27A.85.85,0,0,0,20.3,6.29Z"/><path d="M19.6,7.15c-.15,0-.3-.09-.36.12A.29.29,0,0,0,19.6,7.15Z"/><path d="M19.62,6.34a.13.13,0,0,0,0-.06S19.62,6.32,19.62,6.34Z"/><path d="M18.18,7.66c-.11-.06-.31.17-.25.19s.4-.22.26-.36c.16.12.38-.12.33-.21s-.15.13-.27,0-.06-.09-.13-.11C18.16,7.42,18,7.47,18.18,7.66Z"/><path d="M5.36,31.71c-.13-.1,0-.26-.12-.36,0,.11,0,.2,0,.31S5.32,31.76,5.36,31.71Z"/><path d="M28.48,6s0-.08,0-.12.18.14.31,0c-.1-.1-.22,0-.34,0A.27.27,0,0,0,28.48,6Z"/><path d="M45.5,20.65c-.14.16,0,.25.08.37.13-.12-.12-.15.06-.28C45.55,20.71,45.57,20.6,45.5,20.65Z"/><path d="M7,35.86c.07.06.11.13.18.19,0-.1,0-.14,0-.24A.15.15,0,0,0,7,35.86Z"/><path d="M41.63,42.36c.18,0,.29-.37,0-.35C41.57,42.14,41.44,42.31,41.63,42.36Z"/><path d="M27.57,6c0,.23.23.22.37,0C27.82,6.06,27.71,5.94,27.57,6Z"/><path d="M28.88,6.09c.1.16.25,0,.35.14C29.29,6.05,29,6,28.88,6.09Z"/><path d="M30.18,6.11c-.14-.14-.33-.05-.52.09C29.82,6.28,30,6.36,30.18,6.11Z"/><path d="M29.15,6.3s0,.11,0,.15.12,0,.17.07.05-.15,0-.24S29.18,6.33,29.15,6.3Z"/><path d="M26.19,6.05a.58.58,0,0,0,.63,0c0-.06-.07-.14,0-.2-.15-.09-.3,0-.45-.1C26.23,5.84,26.31,6,26.19,6.05Z"/><path d="M30,6.51c-.21,0-.37-.18-.59,0A.48.48,0,0,0,30,6.51Z"/><path d="M33.29,7.21c0-.14-.2-.13-.08-.2-.05-.07-.07.08-.12,0C33,7.09,33.18,7.3,33.29,7.21Z"/><path d="M26.84,5.73l.11.12c.06,0,.12-.09.09-.15s.09,0,.14.09.22-.16.06-.27c0,0,0,.08,0,.11s0-.13-.1-.2C27,5.62,27.06,5.57,26.84,5.73Z"/><path d="M6.3,22l.18.28a1,1,0,0,0,0-.59C6.29,21.73,6.55,21.92,6.3,22Z"/><path d="M15.05,43.27c.12,0,.14-.06.21-.09s-.14-.15-.3-.12C15,43.16,15,43.17,15.05,43.27Z"/><path d="M14.69,42.76c-.06-.17-.32,0-.2-.25C14.15,42.52,14.56,43,14.69,42.76Z"/><path d="M13.94,41.89c-.16-.13.06-.17,0-.33-.23.09-.08-.26-.28-.2C13.84,41.53,13.55,41.93,13.94,41.89Z"/><path d="M5.75,23.82c.06,0,.13,0,.19.06s0-.2,0-.32C5.75,23.63,5.92,23.75,5.75,23.82Z"/><path d="M5.82,25.48c.1-.06.09-.12.13-.19s-.16,0-.23-.09C5.64,25.37,5.77,25.31,5.82,25.48Z"/><path d="M5.49,25.78c.29-.1,0-.59.25-.82C5.32,24.9,5.51,25.55,5.49,25.78Z"/><path d="M13.69,40.32c-.16.06-.35,0-.21-.1a.29.29,0,0,0-.33.07C13.17,40.52,13.63,40.58,13.69,40.32Z"/><path d="M14.62,39.36V39.2l-.21,0C14.46,39.29,14.45,39.42,14.62,39.36Z"/><path d="M9.54,36.52c-.15-.05-.23.17-.18.24S9.51,36.65,9.54,36.52Z"/><path d="M16.14,40.19a.5.5,0,0,0-.51-.43C15.73,40,16,40,16.14,40.19Z"/><path d="M15.33,40.43c.05.15.2,0,.11.25.11,0,.13-.06.2-.08v-.16c-.23,0-.1,0-.21-.18C15.35,40.28,15.41,40.42,15.33,40.43Z"/><path d="M15.77,41c.18-.13-.1-.13-.07-.25C15.48,40.86,15.72,40.91,15.77,41Z"/><path d="M15.27,39.86c0,.18,0,.3.26.23C15.55,39.88,15.37,39.92,15.27,39.86Z"/><path d="M5.39,26.58c.15-.17,0-.3.2-.36-.26-.13-.1-.17-.18-.36a.36.36,0,0,1-.13.19C5.43,26.23,5.24,26.4,5.39,26.58Z"/><path d="M5.5,31.81c-.06.17-.18.11-.24.31.15.08.25,0,.4,0C5.62,32,5.62,31.89,5.5,31.81Z"/><path d="M6.23,26.08l.18.2c.08-.05,0-.1.09-.15S6.32,26,6.23,26.08Z"/><path d="M5.53,31.76a.5.5,0,0,0,0-.39C5.49,31.35,5.3,31.71,5.53,31.76Z"/><path d="M7,36.73a.84.84,0,0,0-.14-.55C6.71,36.28,7,36.58,7,36.73Z"/><path d="M5.77,31.58c-.14.18,0,.32,0,.46.21,0-.07-.23.07-.35s.2.14.29.18A.43.43,0,0,0,6,31.49C5.91,31.6,5.86,31.64,5.77,31.58Z"/><path d="M6.72,35.93c.16,0,.06-.29.08-.4C6.65,35.54,6.62,35.88,6.72,35.93Z"/><path d="M5.68,32.79c.08-.19,0-.26.14-.38-.19-.07-.34,0-.46-.22C5.09,32.42,5.57,32.53,5.68,32.79Z"/><path d="M6.4,33c0-.16-.14-.27-.31-.38C6,32.82,6.23,32.91,6.4,33Z"/><path d="M5.75,30.46a.32.32,0,0,0,.18-.36c-.2-.08-.12.16-.25.17-.23-.19,0-.24,0-.41s-.17,0-.13-.11C5.32,29.87,5.49,30.29,5.75,30.46Z"/><path d="M5.21,27.83c-.08.13-.19-.26-.27,0,.26.08.2.31.37.35,0-.22.08-.44-.11-.65C5,27.62,5.29,27.72,5.21,27.83Z"/><path d="M6,27.67c.11-.17-.09-.17-.2-.18S6,27.67,6,27.67Z"/><path d="M5.74,26.78a.32.32,0,0,0-.43,0C5.32,26.89,5.6,27,5.74,26.78Z"/><path d="M5.88,28.87c.1-.12.27-.24,0-.33C5.91,28.65,5.74,28.77,5.88,28.87Z"/><path d="M4.75,29.4c0-.21.07-.43,0-.63A.56.56,0,0,0,4.75,29.4Z"/><path d="M5.56,29.47a.45.45,0,0,0,.13-.26.29.29,0,0,1-.17-.06A.22.22,0,0,0,5.56,29.47Z"/><path d="M9.35,38.19c.06.19.35,0,.2-.13S9.46,38.2,9.35,38.19Z"/><path d="M14,19.87a.13.13,0,0,0,.07.1l.05-.09A.17.17,0,0,0,14,19.87Z"/><path d="M12.84,26.46a1.15,1.15,0,0,0,0-.18.42.42,0,0,0-.2.1c.15.07,0,.14.16.21C12.77,26.53,12.8,26.5,12.84,26.46Z"/><path d="M12.92,24.2a.17.17,0,0,0,0,.23Z"/><path d="M14.21,19.75c-.06,0-.14-.1-.1,0s0,.1.06.1A.3.3,0,0,0,14.21,19.75Z"/><path d="M14.05,32.46c-.18.09,0,.26,0,.33S14.07,32.55,14.05,32.46Z"/><path d="M12.81,28.08a1.69,1.69,0,0,0,0-.55A.41.41,0,0,0,12.81,28.08Z"/><path d="M14.63,19s-.05.05-.08.06c-.12-.21.2-.14.09-.34a.37.37,0,0,1,.15,0l0-.06h-.05c-.09-.15.11-.11.16-.17h0s0-.06,0-.12a1.63,1.63,0,0,0-.69.87c.07,0,.19,0,.2-.1a.25.25,0,0,1,.1.08A1.71,1.71,0,0,1,14.63,19Z"/><path d="M14.52,32.36c-.07.1,0,.14.09.17Z"/><path d="M9.84,18.1c.1-.12.23-.21.18-.41-.13,0-.16.22-.24.11C9.74,17.88,9.76,18.07,9.84,18.1Z"/><path d="M8.9,20.21c.11,0,.16.16.32,0,0-.21-.15-.15-.27-.29-.18.11-.06.33-.32.41.06.14.13.26.27.17C8.82,20.4,8.91,20.32,8.9,20.21Z"/><path d="M7.88,18.83c-.14,0-.14.13-.06.26C8,19.05,8,19,7.88,18.83Z"/><path d="M7,20.29a.23.23,0,0,0,0,.31A.17.17,0,0,0,7,20.29Z"/><path d="M8.5,20.14c-.07-.1-.32.06-.14.18S8.44,20.19,8.5,20.14Z"/><path d="M9.28,18.69c-.14,0-.08.2-.17.28C9.3,19.08,9.27,18.78,9.28,18.69Z"/><path d="M9.42,20.29c-.1.16-.4,0-.27.26C9.3,20.59,9.44,20.41,9.42,20.29Z"/><path d="M10.5,19.92l.15,0-.1-.18C10.42,19.72,10.42,19.81,10.5,19.92Z"/><path d="M9.59,20.38c.17.11.2-.13.1-.25l-.2.07S9.71,20.33,9.59,20.38Z"/><path d="M10.24,18.27a.12.12,0,0,0-.11.13c-.29,0,0-.32,0-.43-.12,0-.47.28-.22.42-.25.05-.4-.31-.23-.42-.22-.1-.13.3-.31.36.07.07.1,0,.15,0,.06.17,0,.27,0,.43-.11,0-.1-.16-.15-.22-.1.27.1.79-.31.86a2.3,2.3,0,0,1,.35.7c.22-.07-.12-.32.17-.22a.59.59,0,0,0-.28-.34.73.73,0,0,1,.43-.68l-.1-.24C9.81,18.48,10.31,18.58,10.24,18.27Z"/><path d="M14.86,32.94a.22.22,0,0,1-.14-.17h0l-.06-.11-.08.14c.12.07.18.26.34.29A1.19,1.19,0,0,1,14.86,32.94Z"/><path d="M12.94,29.27c-.21,0-.1.22,0,.26C13.11,29.41,12.82,29.39,12.94,29.27Z"/><path d="M33.44,46.09c0-.13,0-.14.16-.05a.22.22,0,0,1,0-.17C33.53,45.76,33.23,46,33.44,46.09Z"/><path d="M34.59,44.84c-.23-.05-.37.12-.52.31C34.3,45.21,34.41,44.93,34.59,44.84Z"/><path d="M35.38,44.7c-.14-.11-.14.14-.27.07C35.11,44.93,35.38,44.89,35.38,44.7Z"/><path d="M39.64,42.83c-.22-.06-.24.17-.34.28.34,0,.16.34.44.37a.32.32,0,0,0,.1-.21C39.51,43.24,39.42,43,39.64,42.83Z"/><path d="M33.6,45.22c-.15-.12-.22,0-.3.09A.21.21,0,0,0,33.6,45.22Z"/><path d="M32.74,46.28c-.1-.14-.28-.26-.12-.46a1,1,0,0,0,.33.32c.07-.13.13-.25.27-.11.13-.3.14-.35.35-.51,0-.15-.26-.07-.36.06-.1-.12.2-.13,0-.25s-.43.54-.77.33C32.33,45.9,32.39,46.28,32.74,46.28Z"/><path d="M10.09,17.57c.29,0,.17-.28.32-.38,0-.07-.15,0-.23,0C10.27,17.35,10.07,17.35,10.09,17.57Z"/><path d="M26.83,45.29c-.11,0-.3.08-.31.23S26.83,45.4,26.83,45.29Z"/><path d="M32.46,41.74c0-.1-.13-.21-.2-.19.15.23,0,.24-.13.33,0,0,.08,0,.1,0s0,.17.13.21S32.35,41.72,32.46,41.74Z"/><path d="M30.4,39a.64.64,0,0,1,0-.07l-.05,0Z"/><path d="M15.69,34.15a.41.41,0,0,1-.23.07c0,.06.07.08.16.09s.08-.07.14-.08Z"/><path d="M17.7,36.26v0l-.2-.17a.13.13,0,0,0,0,.06c.1,0,.3,0,.13.24.11,0,.13,0,.21,0l0,0-.12-.11Z"/><path d="M15.64,34.09a.44.44,0,0,0-.08-.11c0,.09-.05.17.08.15Z"/><path d="M32.05,41.53c-.12-.1-.21.06-.18.17C32.06,41.82,32,41.67,32.05,41.53Z"/><path d="M32.63,38.05l-.14.06a3.52,3.52,0,0,1-.19.4C32.54,38.53,32.58,38.26,32.63,38.05Z"/><path d="M15.49,33.88c-.15-.2-.29-.4-.42-.61a.24.24,0,0,1-.18-.08c-.05.14,0,.3.24.18-.26.28.16.26.11.5C15.37,33.78,15.42,33.84,15.49,33.88Z"/><path d="M41.47,40a.39.39,0,0,0-.19.49C41.37,40.38,41.5,40.29,41.47,40Z"/><path d="M8.86,19.55c-.1.08-.06.21-.16.28C8.89,19.94,8.93,19.67,8.86,19.55Z"/><path d="M12.66,11.26c-.16,0-.17.19-.23.31C12.53,11.49,12.7,11.5,12.66,11.26Z"/><path d="M19.34,11.31q-.19-.09-.24.15C19.24,11.54,19.28,11.42,19.34,11.31Z"/><path d="M13.42,11.29c0-.08-.21,0-.21-.14-.19.08.08.2,0,.33C13.39,11.52,13.43,11.43,13.42,11.29Z"/><path d="M18.18,11.28c.1.08.09-.06.16,0,0-.17.1-.37-.11-.43C18.29,11.11,18.16,11,18.18,11.28Z"/><path d="M17.39,11.44c-.15-.16-.37,0-.48.14.25-.09.17.09.43.2l0-.25c.07.05,0,.18.17.18-.09-.25,0-.29.2-.29-.07-.13,0-.08.05-.25l-.19-.08C17.73,11.35,17.43,11.26,17.39,11.44Z"/><path d="M12.5,11.19c-.21-.09-.14.15-.28.14C12.29,11.48,12.52,11.33,12.5,11.19Z"/><path d="M12.77,11.32c.23,0,.22-.31.3-.51-.13,0-.26,0-.28.08-.14-.09-.11-.29-.14-.35C12.25,10.64,12.86,11,12.77,11.32Z"/><path d="M43.14,15.8c.27,0,0-.18.12-.36C43.08,15.48,43.23,15.68,43.14,15.8Z"/><path d="M13.29,10.83c.14,0,.18,0,.18-.19S13.29,10.69,13.29,10.83Z"/><path d="M17.81,11.39c0,.07.07.11.06.18.18.1.44-.22.17-.35C18.07,11.57,18,11.27,17.81,11.39Z"/><path d="M45,34.42c.06-.07.19-.1.09-.26l-.16.05Z"/><path d="M44.9,34.09a.37.37,0,0,0,.29-.5C45,33.71,45,33.92,44.9,34.09Z"/><path d="M45.1,33.51c.18.09.29-.2.14-.4C45.11,33.2,45.27,33.43,45.1,33.51Z"/><path d="M15.22,18l0-.08S15.22,18,15.22,18Z"/><path d="M44.51,18.44c.21,0,0-.27.07-.38C44.25,18.14,44.64,18.22,44.51,18.44Z"/><path d="M43.84,17.25a.65.65,0,0,0,.38.31c.1-.14,0-.22,0-.33-.24,0-.2,0-.36-.13Z"/><path d="M45.54,22c.19.08.17.24.31.22s0-.23-.09-.33C45.69,21.94,45.6,21.83,45.54,22Z"/><path d="M46.22,26.86a.27.27,0,0,0,0-.41C46.28,26.59,46.09,26.71,46.22,26.86Z"/><path d="M45.74,22.64c.27,0,0-.33-.11-.28S45.8,22.45,45.74,22.64Z"/><path d="M7.48,17.1c-.16-.17,0-.38-.28-.32,0,.11.23.42,0,.54,0,.08.13.09.25,0S7.3,17.1,7.48,17.1Z"/><path d="M13.09,14.54h.11a.31.31,0,0,1-.08-.2c-.23,0-.4-.13-.4.13C12.88,14.39,13,14.37,13.09,14.54Z"/><path d="M8.16,15.8l0,.16c.11-.21.33-.35.37-.6C8.38,15.47,8.35,15.69,8.16,15.8Z"/><path d="M12.38,15.54c0-.13-.13-.12-.24-.14a2.88,2.88,0,0,0,.4-.72c-.34.14-.31.67-.79.58.25.13.19.21.24.4C12.23,15.6,12.09,15.37,12.38,15.54Z"/><path d="M8.68,14.43c.06-.16.16.18.35.05S8.87,14.23,9,14c-.29.05-.27.33-.43.47.08.09.15.2.31.17C8.85,14.5,8.72,14.53,8.68,14.43Z"/><path d="M9.3,14.38v.11c.18,0,.1-.18.32-.15a.4.4,0,0,0-.1-.27C9.38,14.2,9.49,14.38,9.3,14.38Z"/><path d="M9.2,14.51c-.15.05-.12.23-.16.36A.27.27,0,0,0,9.2,14.51Z"/><path d="M11.18,16.29a.47.47,0,0,0,.08-.32,3.37,3.37,0,0,1-.36.3C11,16.5,11.16,16.2,11.18,16.29Z"/><path d="M7.84,16.35c.12.11.23-.17.35-.21a.28.28,0,0,1-.1-.15C7.87,16,8,16.28,7.84,16.35Z"/><path d="M17.69,12.13c-.15-.11-.12.08-.21.07C17.52,12.35,17.73,12.3,17.69,12.13Z"/><path d="M7.88,16.51c-.09-.14-.09,0-.23,0-.08-.16,0-.19,0-.34-.24.16-.14.42-.12.62C7.7,16.91,7.78,16.59,7.88,16.51Z"/><path d="M8.87,15.13c0-.08-.17,0-.19-.08s-.09.17,0,.3S8.74,15.17,8.87,15.13Z"/><path d="M15.7,12.71c0-.18-.1-.1,0-.32-.28,0,0,.4-.27.35C15.46,13,15.63,12.78,15.7,12.71Z"/><path d="M16.34,12.17c-.2-.11-.26.14-.18.26S16.35,12.35,16.34,12.17Z"/><path d="M13.58,13.72c-.26,0-.13.37-.38.38C13.43,14.39,13.46,13.83,13.58,13.72Z"/><path d="M16,12.74c-.23,0-.21.31-.56.16,0,.14.07.15.05.26C15.65,13,16.06,13,16,12.74Z"/><path d="M14.74,13.52a.14.14,0,0,0-.14.23C14.7,13.72,14.73,13.63,14.74,13.52Z"/><path d="M15.83,13.45c.09,0,.17-.06.15-.22C15.86,13.22,15.75,13.35,15.83,13.45Z"/><path d="M14.48,13.17c-.23-.11-.36.33-.66.32C14.1,13.8,14.26,13.24,14.48,13.17Z"/><path d="M18.1,38.37l.18,0c0-.16-.07-.11,0-.24C18.09,38.11,18.09,38.24,18.1,38.37Z"/><path d="M18.23,36.8c-.1.07-.1.37.06.26S18.26,36.87,18.23,36.8Z"/><path d="M17.69,38c.15,0,0-.17.19-.15s0,0,0,0c-.05-.3-.34-.3-.41-.57-.17,0-.2.17-.34.23,0,.17.17,0,.23,0s-.1.17,0,.25c.14-.17.22,0,.36-.05C17.62,37.88,17.7,37.89,17.69,38Z"/><path d="M17.69,42.06c-.05-.14-.05-.35-.25-.25C17.51,41.9,17.54,42.08,17.69,42.06Z"/><path d="M17.39,42.15c0,.23.15.07.19.17C17.7,42.22,17.5,42.1,17.39,42.15Z"/><path d="M17.09,42c0,.06.1.06.13.13a.36.36,0,0,0,.11-.31C17.2,41.81,17.18,41.91,17.09,42Z"/><path d="M16.62,44.68c.19,0,.34.12.59,0C17.13,44.6,16.92,44.61,16.62,44.68Z"/><path d="M16.33,39.63c0-.18-.35-.33-.35,0C16.19,39.5,16.2,39.64,16.33,39.63Z"/><path d="M16.49,36.31c.14-.16,0-.34-.25-.28,0,.07-.06.09-.12.1C16.07,36.36,16.49,36.14,16.49,36.31Z"/><path d="M15.78,42.2c.15,0,.11.36.32.32A.29.29,0,0,0,15.78,42.2Z"/><path d="M15.14,38.48a.22.22,0,0,1,0,.15.4.4,0,0,1,.21-.07C15.44,38.38,15.23,38.5,15.14,38.48Z"/><path d="M14.13,39.71c-.08-.15-.33-.23-.37,0C14,39.74,14,39.8,14.13,39.71Z"/><path d="M13.47,36c0,.06.11,0,.18.05s0-.06.06-.19C13.6,35.85,13.55,35.93,13.47,36Z"/><path d="M12.38,33.05c.11.09.07.37.26.31A.3.3,0,0,0,12.38,33.05Z"/><path d="M9.47,37.41c0,.08.12.08.2.11,0-.14,0-.19,0-.3S9.61,37.49,9.47,37.41Z"/><path d="M8.7,40.15c.13.11.29.4.44.32C9.11,40.27,8.94,40.19,8.7,40.15Z"/><path d="M12.75,30.12l.13-.14c-.06,0-.12,0-.09,0C12.66,29.92,12.61,30.12,12.75,30.12Z"/><path d="M7.9,36.56c0,.11.2.11.1.27.28-.07.19.24.44.31,0-.21-.19-.29-.08-.55-.11,0-.15.11-.22.16S8.07,36.47,7.9,36.56Z"/><path d="M11.77,29.68c-.12-.07-.27.06-.25.14s.14-.1.24,0C11.75,29.78,11.82,29.71,11.77,29.68Z"/><path d="M7,34.59c.1.16.28.29.22.52C7.43,35,7.28,34.51,7,34.59Z"/><path d="M5.9,35.64c.09.12.08.28.25.36C6.2,35.82,6.11,35.71,5.9,35.64Z"/><path d="M7,32.65a.35.35,0,0,0,.11.38C7.14,32.89,7.2,32.74,7,32.65Z"/><path d="M6.88,31.48l.19.11c0-.1-.07-.17,0-.27S6.94,31.41,6.88,31.48Z"/><path d="M6.83,31.05c.12-.13,0-.2,0-.31S6.62,31,6.83,31.05Z"/><path d="M11.84,25.75s-.05,0-.08,0,.05-.07.09-.11-.28,0-.19-.14c-.13-.11-.06.15-.16,0C11.52,25.62,11.65,25.89,11.84,25.75Z"/><path d="M11.66,25.12l-.21.13c.14.06,0,.11.14.17s.05-.07,0-.11.11-.07.16,0S11.71,25.17,11.66,25.12Z"/><path d="M12.36,24.63c-.15.06-.06.14.05.22S12.43,24.71,12.36,24.63Z"/><path d="M6.68,28.86c0,.19.2,0,.32,0C7,28.74,6.75,28.78,6.68,28.86Z"/><path d="M6.56,29.26c0-.21.12-.5-.18-.56C6.48,28.88,6.26,29.1,6.56,29.26Z"/><path d="M6.77,28.66c.06,0,.1-.06.16,0,0-.13,0-.26-.11-.37C6.79,28.41,6.84,28.53,6.77,28.66Z"/><path d="M7.18,27.8c.13.15.25.12.37.16C7.45,27.65,7.58,27.57,7.18,27.8Z"/><path d="M12.52,23.79c0,.08-.18.15-.06.26C12.59,24,12.61,23.89,12.52,23.79Z"/><path d="M13.11,22.86c-.15-.29.1-.45-.16-.67a1,1,0,0,0,0,.6c-.06,0-.09-.05-.14-.09C12.61,22.84,12.91,22.92,13.11,22.86Z"/><path d="M7,25.59c-.26,0,.09.25.18.19S6.84,25.7,7,25.59Z"/><path d="M6.94,25.25a.29.29,0,0,0,.1.34C7.1,25.48,7.09,25.37,6.94,25.25Z"/><path d="M13.2,21.63l.19-.05c0-.07-.12-.06-.16-.14S13.12,21.54,13.2,21.63Z"/><path d="M8.31,23.33c-.08-.07-.19,0-.25-.15C8,23.33,8.24,23.57,8.31,23.33Z"/><path d="M6.58,16.87a.67.67,0,0,0,0,.42C6.89,17.21,6.71,17,6.58,16.87Z"/><path d="M9,13.52c.17,0,0,.18,0,.28.17-.08.17-.25.07-.41a.15.15,0,0,1-.22,0c-.05-.26.29-.22.23-.49-.06.07-.09.18-.27.15a.42.42,0,0,1-.35.46c.11.09.34,0,.32.29C9,13.78,8.75,13.59,9,13.52Z"/><path d="M9.93,12.23c-.2,0-.09.41-.22.13-.14,0,0,.19,0,.22H10C9.94,12.36,10,12.4,9.93,12.23Z"/><path d="M10.27,12.27c-.08-.07-.06-.25-.07-.4H10c0,.07,0,.1,0,.12s.1,0,.06.22C10.14,12.21,10.16,12.28,10.27,12.27Z"/><path d="M10.82,11.91c0-.2.17-.21.17-.39-.19.05-.18.31-.45.28C10.61,12,10.65,11.83,10.82,11.91Z"/><path d="M11.22,11.24a.3.3,0,0,0-.22-.06c0,.15,0,.24.16.23A.29.29,0,0,0,11.22,11.24Z"/><path d="M11.39,11.24c0-.09-.1-.15,0-.17s-.14-.05-.22-.06v.17C11.26,11.17,11.28,11.25,11.39,11.24Z"/><path d="M11.53,10.63c-.15,0-.34,0-.41.16S11.56,10.83,11.53,10.63Z"/><path d="M13.27,9.27c-.17-.07-.14.14-.3.07,0,.13,0,.27.19.25C13.14,9.42,13.24,9.4,13.27,9.27Z"/><path d="M14.36,8.62l-.22,0,0,.22A.21.21,0,0,0,14.36,8.62Z"/><path d="M15,8.06c-.11,0,0,.1,0,.16s-.19,0-.17.2c.16-.05.3-.13.45-.18S14.89,8.21,15,8.06Z"/><path d="M15.2,7.6c-.09-.12-.19-.08-.34,0s.17.09.12.21C15.09,7.79,15.09,7.59,15.2,7.6Z"/><path d="M15.62,7.6c.07.22.18.21.44.26.11-.32.42-.22.63-.32,0-.29-.38-.12-.56-.25.07.21.13.2-.07.39C15.83,7.61,15.79,7.49,15.62,7.6Z"/><path d="M15.86,7.38c.18,0,.29-.2.49-.2C16.29,7.09,15.89,7.11,15.86,7.38Z"/><path d="M16.77,6.85c.05-.15-.19-.17-.11-.34a.25.25,0,0,0-.19.18c.21,0,.17-.05.07.14C16.63,6.87,16.67,6.81,16.77,6.85Z"/><path d="M17.69,6.12c0,.14,0,.06-.1.2.1.07.16,0,.24,0S17.82,6.16,17.69,6.12Z"/><path d="M31.06,6a1.08,1.08,0,0,0-.15.28c.14.17.35.13.57,0A2.12,2.12,0,0,0,31.06,6Z"/><path d="M34.87,7.07c.1-.07-.09-.27-.23-.15S34.81,7,34.87,7.07Z"/><path d="M38.26,9.39c-.08-.14-.24-.19-.36-.28C37.81,9.24,38.06,9.44,38.26,9.39Z"/><path d="M39.91,10.53c-.13-.13-.41-.33-.6-.19C39.51,10.37,39.76,10.6,39.91,10.53Z"/><path d="M42.31,13.19c.11-.06,0-.37-.22-.36C42.11,13,42.26,13.05,42.31,13.19Z"/><path d="M44,16.39c0-.07-.07-.13-.16-.16s-.11.08-.13.18S43.93,16.42,44,16.39Z"/><path d="M46.44,22.91a.16.16,0,0,0,.19-.06,1.81,1.81,0,0,0,.13.61,1,1,0,0,0-.06-.77C46.62,22.84,46.53,22.81,46.44,22.91Z"/><path d="M46,24.14c.11,0,.24.16.35,0S46.08,24,46,24.14Z"/><path d="M46.51,23.89a.36.36,0,0,0,.24.15c.07-.09-.17-.17,0-.27C46.63,23.73,46.57,23.84,46.51,23.89Z"/><path d="M46.15,33.3c.06-.06.05-.15,0-.25s-.06,0-.09-.08S46.1,33.2,46.15,33.3Z"/><path d="M46.42,34.05a.22.22,0,0,0-.11-.33C46.2,33.79,46.36,34,46.42,34.05Z"/><path d="M45.46,35.61a6.74,6.74,0,0,0,.32-1.34,3,3,0,0,0-.42,1C45.56,35.25,45.43,35.42,45.46,35.61Z"/><path d="M45.35,35.41c-.16.07-.09.28-.12.44A.32.32,0,0,0,45.35,35.41Z"/><path d="M45.15,36c-.09.13-.25.22-.26.4S45.24,36.22,45.15,36Z"/><path d="M44.68,36.21a.69.69,0,0,1-.35.24c.08.19,0,.26.28.29C44.41,36.57,44.72,36.42,44.68,36.21Z"/><path d="M46.19,37.92c.12,0,.14-.07.22-.11s-.12-.13,0-.18C46.26,37.49,46.17,37.8,46.19,37.92Z"/><path d="M43.89,38.57c.28,0,0,.16.19.27s-.07-.31.09-.3c0-.08-.33,0-.13-.16,0-.05,0-.05-.06-.05l-.11,0c.08.2-.31.43-.29.77.07,0,.11,0,.12.05A3,3,0,0,0,43.89,38.57Z"/><path d="M46,38.33a1.46,1.46,0,0,0-.34.79A2.08,2.08,0,0,0,46,38.33Z"/><path d="M43.09,39.38c.16.06.21.15.12.34.18-.06.21-.25.27-.42C43.4,39.41,43.2,39.23,43.09,39.38Z"/><path d="M43.21,40.24c.24-.17.18-.3.28-.54C43.3,39.78,43.27,40,43.21,40.24Z"/><path d="M42.21,41.06c0,.08.17,0,.17.11.21-.18.13-.66.48-.69C42.55,40.18,42.51,41,42.21,41.06Z"/><path d="M42.6,41.35c.3-.11.31-.53.43-.82C42.75,40.66,42.72,41,42.6,41.35Z"/><path d="M42.73,41.81c.18,0,.11-.31.26-.35C42.86,41.29,42.78,41.69,42.73,41.81Z"/><path d="M42.71,41.41c-.22.12-.47.19-.46.57C42.31,41.68,42.66,41.71,42.71,41.41Z"/><path d="M41.61,42c.31,0,.2.31,0,.35s-.06-.22,0-.35c-.2-.07-.11.21-.3.15a1.92,1.92,0,0,1-.15,1.27c.18.22.33-.53.24-.68.16.16.28-.17.33.08a10.36,10.36,0,0,0,.17-1.38C41.68,41.49,41.64,41.73,41.61,42Z"/><path d="M40.93,43.41c0-.16-.19-.29.06-.35,0-.07-.13-.06-.22-.08s-.07.29-.18.33.12.08.08.19S40.84,43.43,40.93,43.41Z"/><path d="M40.4,43.11c-.09.09-.27.35,0,.35C40.47,43.29,40.37,43.25,40.4,43.11Z"/><path d="M40.17,43.66c0,.15.09.13,0,.3.18,0,.18-.24.31-.31C40.42,43.45,40.3,43.75,40.17,43.66Z"/><path class="cls-5" d="M11.25,27.8l0,0"/><path d="M7.9,33.38l0,0S7.91,33.38,7.9,33.38Z"/><path d="M15.88,43.08l0,0S15.9,43.08,15.88,43.08Z"/><path d="M25.65,46.88c0-.05-.11,0-.16.06-.07-.16,0-.1.13-.19.1.16.2.21.31.19s.06.19-.06.27c.1,0,.2,0,.21-.1.24.29.83,0,1.21-.11.46.35.92-.19,1.35-.5l.08.08c-.15.43-.6.48-.82.77.09.11.17,0,.25.16.68-.49,1.12-.38,1.75-.76,0,0,0,.08.06.12a1.4,1.4,0,0,0-.7.54c.12.11.22,0,.34,0-.07-.15,0-.2.2-.13a.44.44,0,0,1,0-.32c.24.07.75-.16.59-.46.08-.14.08.23.22.08,0,.08-.15.11,0,.25s.26-.32.18-.42c.1-.08.13.18.25.24.19-.15,0-.25.14-.39s.15.1.1.15c.18,0,.09-.2.12-.26a.38.38,0,0,1,.28.18c-.07.17-.17.14-.25.25.27.08.31-.22.26-.37.27-.1.52-.18.62-.54.22.06,0,.21.15.29a3.91,3.91,0,0,1-.44.26.29.29,0,0,1,.1.46c.12.06.2,0,.18-.15.06.17.19,0,.29.17.17-.27.37-.31.66-.41.09.09-.16.25-.27.11,0,0,0,.06,0,.08l-.06.09c.2.1.32-.09.46-.2.12.13.08.3.2.43,0-.18.07-.11.18-.29.18,0,.16.14.28.2.08-.09,0-.15.06-.22s.06.14.23.17a2.45,2.45,0,0,1,.7-.32c.17.13-.06.13-.11.33.15.06.2-.21.37-.09,0-.06.05-.16,0-.2.63-.09,1.06-.69,1.66-.86,0-.07-.09-.08-.15-.11s.1-.26.19-.3c.42.48.65-.53,1-.6.18.54-.29.63-.48,1,.22,0,.28-.32.47-.11l.12-.32c.12,0,.13.07.2.11-.1.05-.12.26-.27.23.14.12,0,.14,0,.31.32.17.18-.55.51-.36.06-.29.12-.58.16-.86.19,0,.17.14.15.27.22.1.27-.1.41-.14-.08-.08-.1-.19,0-.37-.09,0-.1.17-.25.07a.33.33,0,0,1,.35-.22c0-.17.09-.34.13-.51.19.16,0,.21.29.06s0,.22.24.21c-.17-.35.09-.39.12-.8a6.42,6.42,0,0,1,.7-.31,1.93,1.93,0,0,1,.14-1c.21,0,0,.25.13.3.27-.27.2-.92.13-1.24-.34.19-.08.65-.2.89a.13.13,0,0,1-.15-.12c-.13,0-.1.3,0,.28-.23,0-.32.27-.45.55s-.28.56-.59.52a1.4,1.4,0,0,1,.76-1.15c-.15-.58.3-.91.63-1.3a1.62,1.62,0,0,0,.29.69c0-.2.1-.21.09-.39.55.05.19-.51.69-.5a3,3,0,0,1,.24-.62c-.13,0-.09-.1-.17-.11s.13-.16.1-.34c.23,0,.15.2.06.28.16.09.3-.4.16-.51.11-.11.1-.33.37-.3.16-.16,0-.59.22-.69s.3.35.39.58c.16-.25,0-.54.26-.83.21,0,.19.06.27-.09s-.19.17-.23,0a.52.52,0,0,0-.19.3c-.19-.07-.15-.09-.27.09-.07,0-.06-.09-.07-.16s.29,0,.32-.15-.05-.15-.13-.15.17-.2.23-.31.13.06.08.15-.07,0-.16,0c.08.08.14.2.3.18a5,5,0,0,1,.13-1.83c.07,0,.15,0,.17,0a1.23,1.23,0,0,1,0-.8c.19.07.08.49.19.52-.2,0-.17.14,0,.06a3.66,3.66,0,0,1,.31-1.17c.3,0,0,.45.23.57.06-.14.16-.14,0-.3a1.36,1.36,0,0,0,.3-.94,10,10,0,0,1,0-1c.14-.06.07.36.26.2a.57.57,0,0,1-.16-.53c-.08.09-.18.17-.17.3s-.07,0-.13,0c0-.26.3-.37.12-.69.08,0,.13,0,.22,0-.11-.23.07-.36,0-.56a.15.15,0,0,1,.19,0c.09-.06-.05-.2.13-.24,0-.09-.09-.07-.15-.05a5.73,5.73,0,0,0,.32-1.83c.09,0,.16,0,.21.13,0-.11,0-.24,0-.34s-.22,0-.29-.14c.19-.14.16-.33,0-.53.1-.09.16,0,.26-.1-.08-.08-.19,0-.27-.09.26-.17,0-.17,0-.45.1-.09.16,0,.26-.11a.16.16,0,0,0-.2,0c-.09-.24.23-.72.49-.69-.12-.37-.26.26-.48,0,0-.13.12-.08.22-.24-.13-.18,0-.38-.27-.47,0-.16,0-.35.23-.4l-.19-.19c-.21.12.17,0,0,.18-.28-.11-.06-.65-.27-1,.15.05.29,0,.35.19.21-.26-.31-.3-.35-.56.24-.17,0-.34-.09-.51.21-.21.09-.42,0-.62.16-.07.07.19.21.24s.24.09.35,0c-.25-.19-.31-.48-.59-.63.07-.06,0-.15,0-.3.22-.11.1.44.33.12.17.1,0,.23.15.32.17-.13-.19-.4.08-.42-.16-.11-.12-.25-.29-.43.32,0,0-.21.14-.43-.26-.2-.24-.43-.41-.62-.16,0-.24.23-.11.32-.27,0-.18-.32-.2-.46a.29.29,0,0,1,.3.06c.12-.05.1-.16.28-.21-.35.07-.14-.19-.43-.33-.18.13.07.16-.06.28,0-.12-.22-.21-.08-.37s0,.06.14.09,0-.17.09-.14c.09-.16-.26,0-.08-.17-.12.07-.23.17-.38.09s.13-.05.2-.2c-.12-.08-.2,0-.28,0s0-.14-.08-.17c.12-.24.35,0,.49-.17a.61.61,0,0,0-.33,0c-.2-.07.1-.28-.17-.34,0-.16.15-.14.22-.25-.21-.11-.15-.3-.18-.46-.29,0-.3-.28-.36-.47s.21.13.23-.08c-.29-.07-.24-.29-.35-.51s-.15.13-.28.07.21-.13.22-.33a.14.14,0,0,0-.2-.08c.26-.51-.51-.59-.45-1-.29,0-.29-.09-.54-.23,0-.06.08-.17,0-.28.15-.13.2.14.34.15,0-.26-.22-.33-.42-.4,0-.2.09-.17.17-.35-.12-.1-.07-.23-.28-.18l.06-.21c-.15.16-.42-.13-.28-.4-.31.06-.26-.1-.32-.29s0,0-.09.15-.1-.14-.17-.2c.07-.22.13-.14.26-.17a.56.56,0,0,1,0-.56c.06,0,.09,0,.09.07.11-.11-.16-.35-.24-.49.15.39-.1.49.05.84-.47-.09,0-.46-.25-.65-.13.12-.11.44-.27.51.07-.17-.11-.35,0-.54-.19,0-.33.12-.52.15.25-.14.12-.27.14-.47s.26,0,.25-.2c-.14,0-.17,0-.3.14-.07-.07,0-.28-.15-.07a.69.69,0,0,1-.06-.39c.09-.08.23.26.38,0-.23-.08-1.08-.53-.63-.71-.07-.1-.29-.06-.26-.24-.38.14-.45-.35-.91-.28.14-.23-.15-.27.07-.38-.05-.14-.22.08-.38,0s-.34-.49-.71-.5c.12-.19-.11-.3-.23-.2,0-.23-.12-.2-.13-.37,0,.12,0,.16-.08.34-.13-.07-.16-.3-.14-.42-.13-.16-.22.12-.29-.24-.06,0-.05.13-.15.13a.53.53,0,0,1,.3.4,6.22,6.22,0,0,0-.64-.51s0-.06,0-.12c.15,0,.24.29.39.11-.08-.22-.4-.07-.48-.42-.08,0-.15,0-.17,0a.18.18,0,0,0-.09.19c-.21,0-.26-.2-.46-.19-.07-.14.05-.15,0-.28s0,.21-.2.1.18-.11,0-.22,0,.12-.14.14c-.24-.72-1.1-.66-1.41-1.07,0-.1.17-.09.18-.17-.16-.17-.51,0-.56-.34a.15.15,0,0,0,0,.2c-.14.09-.16,0-.28,0-.06-.1,0-.12.12-.16s-.21-.08-.29-.18,0,.11,0,.18-.13-.07-.23,0,.09-.1,0-.19l-.2.08c-.07-.12.05-.15,0-.28a7.22,7.22,0,0,1-1.06-.31l.06.15c-.09,0-.25.09-.31,0s0-.13.1-.17a.89.89,0,0,0-.74,0c0-.18-.09-.24-.27-.17.14.2,0,.15-.14.2.35,0,.42.29.81.31.06-.06,0,0-.05-.1.13-.14.11.14.24,0a1.38,1.38,0,0,0,.17.4c-.35-.31-1-.17-1.24-.51,0,0,0,.08-.07.11s.07-.14-.05-.22c-.31.24-.47,0-.67-.11-.11.2-.26.15-.4.07.09-.15.25-.27.18-.45.12,0,.3.08.34-.07-.15,0-.15,0-.19-.21-.1.15-.19.09-.25.22s-.23-.14-.39,0c-.09-.31-.46-.22-.74-.15,0-.24-.11-.24-.33-.09a.15.15,0,0,1,.07-.19c-.23-.15-.53.08-.77,0-.07.07.08.16,0,.23s-.12-.22-.22,0a.17.17,0,0,1,0-.21c-.12,0,0,.22-.2.1s-.12-.17,0-.24c-.21.1-.54-.14-.63.1-.1-.08,0-.15-.14-.24,0,.24-.2,0-.2,0-.27,0-.36.33-.66.09,0,.23-.37.12-.54.16,0-.07.05-.14,0-.2-.11.26-.31,0-.5.29s.21.2.28.11-.17.18-.23.16c-.06.19.17,0,.23.07s-.06.13-.11.2-.22-.24-.37,0c-.1-.09-.2-.18-.13-.27-.15-.14-.27.08-.42-.1,0,.11,0,.24-.13.25a1.18,1.18,0,0,1,.6-.71c-.13,0-.26-.1-.4-.13s-.05.24-.18.13c0,.07,0,.13,0,.2s-.11-.09-.29-.17c.07.32-.6.44-.73.12,0,.19-.17,0-.25.23.15.12.25-.1.4,0s-.33.06-.46.07a.34.34,0,0,1-.12.25c-.07.11-.11-.1,0-.15-.15,0-.11.22,0,.28s.18,0,.25-.16c.05.07.06.15.11.22-.16.14-.37-.07-.52.08-.07-.14.18-.48-.08-.46.08.2,0,.11-.16.22-.07-.22.11-.13-.19-.2,0,.15,0,.2-.14.3-.13-.28-.26.16-.48-.06.44-.14.75-.45,1.31-.36-.24-.23.33-.17.21-.46-.08-.07-.14,0-.22-.09,0,.26-.39.13-.48,0,.15.2-.15.24,0,.44-.1,0-.18.15-.31,0s.31,0,0-.2c0-.19.17.07.22-.12s-.06-.12-.16-.17c-.17.3-.28.11-.37,0,.06.32-.48.21-.71.35,0,.16,0,.1.16.16-.19.32-.67.19-.73.47-.18-.05,0-.18-.11-.26a1.61,1.61,0,0,1,.61-.15.26.26,0,0,0-.07-.31c0,.09-.09.07-.16,0s0,.11,0,.15c-.28-.18-.8.22-.86.48,0-.41-.33-.1-.52-.34a.16.16,0,0,1-.18.11c0,.22.19,0,.28.07s-.07.31-.18.6c-.25-.15.08-.27,0-.43-.24-.07-.15.07-.31.23.1.06.09.17.13.25s-.21-.06-.25.13c.22.09.27-.28.52-.06.13-.21.28-.41.48-.43s-.15.11-.2.14.15.09.16,0,0,0,0-.06a.13.13,0,0,1,0,.06c.1.31-.14.42-.47.5a2.13,2.13,0,0,0-1,.38c.07,0,.15,0,.13.11s.12-.17.27,0-.17.33-.33.21c.14.14-.06.49-.26.36s.14-.25.25-.19c-.14-.19,0-.24-.06-.44-.19,0-.16-.1-.37-.11.22-.18.43-.1.64-.5-.23-.11-.06-.18-.34-.21.06.12.25.19.07.39a2.68,2.68,0,0,0-.72.3c.12,0,.18.09.16.19a1.33,1.33,0,0,0,.34-.1c0,.11-.08.23-.12.31s-.09-.08-.07-.15c-.24,0,0,.23-.22.27-.06-.1,0-.25-.1-.34-.13.37-.73.34-.85.74-.09-.06-.05-.18-.23-.19s-.26.12-.29.37a.34.34,0,0,1,.25.14c-.12.16-.31.19-.4.39-.15-.09-.11-.46.16-.35-.14-.07-.07-.24-.21-.3,0,.32-.21.31-.4.63.16.1.12-.15.26-.1s-.18.14-.2.35c-.1,0-.1-.1-.2-.12.15.41-.39.23-.45.51-.25-.18.13-.33.05-.49-.05,0-.06.05-.08.09-.19,0,0-.18-.19-.16,0,.18-.3.19-.12.32,0,.21-.26.07-.33.21-.08-.07-.11-.23,0-.22-.18-.2-.28.47-.54.19l-.05.33c.11,0,.14.06.21.09s-.16,0-.29,0c0,.4-.36.3-.78.46,0,.31-.64.4-.79.77.12.14.15-.08.28-.09.1.19-.22.41-.36.53-.18-.1.18-.17,0-.28s-.26,0-.33,0a5,5,0,0,0,0,.61c-.09.17-.24,0-.39,0s-.12.43-.28.23a1.17,1.17,0,0,1-.53.74c-.21.06-.08-.27-.29-.21-.07.25.22.11.18.33s-.27,0-.44,0c0,.13-.17.14-.21.24-.06-.09-.17-.13-.34-.07,0,0,.1.14,0,.17s.09-.09.22,0-.12.18-.2.25.21,0,.22-.08a1.19,1.19,0,0,1,.19.2c-.09.13-.21,0-.09.24-.24,0-.08-.12-.19-.2s0,.17,0,.27-.25.28-.33.44C9.06,14.17,9,14,9,13.92c-.16.11-.51.07-.52.33-.29,0-.43-.05-.65.25.12-.05.21-.17.33-.08s-.09.24-.17.33.16,0,.15.2c.07-.14.41-.27.27-.4.09,0,.19,0,.2.19s-.24-.05-.12.25c-.16.11-.08-.17-.24-.06.22.1.09.28-.1.37.08.16.19,0,.22-.06,0,.1,0,.14,0,.24s-.3.14-.34,0c0,.05,0,.41-.18.22-.13.08.2.35,0,.47s-.09-.13-.12-.21c-.12.17-.49.39-.31.57,0,.06-.19.28-.22.06a1,1,0,0,0,.26,1.16c0,.09-.1.16-.08.27-.19.09-.18-.24-.39-.09-.07-.24,0-.2.13-.29s-.14-.32-.32-.25c0,.06.08,0,.13,0s0,.29-.12.35,0-.12-.08-.22,0,.24-.21.27c.32.22-.1.51-.39.72.08.18.29.37.42.13-.22,0-.09-.15,0-.26s0,.09,0,.13c.19,0,.24-.43.38-.58,0,.69-.56,1.53-.64,2.32-.06,0-.08-.07-.12-.13a.2.2,0,0,0,0,.33c-.26,0-.08.15-.25.26s-.1-.3-.25-.11c.21.21,0,.25-.1.52.16.17.25.34,0,.49.15.17,0,.27.14.44-.63.31-.37,1.15-.73,1.85.18,0,.3.2,0,.25.07.18.17.14.26.16a.18.18,0,0,1,0,.16c-.11,0-.24,0-.34-.17-.18.22.32.1.05.34.27.09.17.15.16.38s-.18,0-.26-.14c.17.4,0,1,.44,1.29.08.19,0,.19-.09.32s-.23-.11-.35,0a.22.22,0,0,0,.31.08c0,.2.08.15.16.33-.21.12-.48-.14-.47-.33-.06.08-.12,0-.08,0a.74.74,0,0,0,0,1.12c-.1.16-.22-.18-.31,0,.22.14,0,.57.05.85.07.07.13,0,.21.11-.07,0-.14,0-.2.06s.06,0,.18.15c0,0-.11,0-.16,0a.19.19,0,0,0,.19.32.1.1,0,0,0,0,.13s-.11,0-.17-.07c0,.39-.15,1.06.19,1.26-.15.42.12.27,0,.52.35.15.33.29.56.53.08-.11,0-.2,0-.31.16.1,0,.26.12.36,0,.05-.11,0-.17-.05,0,.27-.05.56,0,.83,0,0-.11,0-.18,0s0,.26.14.36c.45,0,.13,1,.54,1.3a10.5,10.5,0,0,1-.25-1.47c.14.14.1.32.14.49.19,0,0-.23,0-.32l.3.18c0,.09-.12.07-.16.17.2.31.54.17.53.62-.12.08-.24-.21-.38-.27s-.14.17-.25.12c.08.07.61.11.54.49-.05.08-.14.07-.25,0-.07.22.43.2.43.47s-.24,0-.27.19c0,0,.06,0,.08,0s.1.2.28.07c0,.08,0,.36.22.22,0,.11.13.16.07.29s-.38-.15-.48,0a1.91,1.91,0,0,0,.33.27c0,.14-.14.08-.15.25a4.83,4.83,0,0,1,.33.69c0,.12-.12-.12-.28-.1,0,.35.56.17.44.59.07.06.3,0,.25.16.15,0-.05-.12.07-.22l.16.06c0,.29.24.43.22.73-.17.11-.36-.18-.26-.38a.56.56,0,0,1-.3-.23c.08.12,0,.55.33.6,0,.21-.23.07-.25.28.33,0,.57.45.8.78-.07.16-.11-.08-.23-.06.1.16-.06.16-.06.35.23.13.26.38.52.49,0,.4.22.23.7.45-.12-.14-.31-.23-.35-.43-.1,0-.12,0-.13.09a.36.36,0,0,1-.2-.28c0-.12.17,0,.16.1.07-.13.14-.67-.18-.7.12-.25-.14-.63-.36-.82,0-.14.15-.15-.07-.2a1.71,1.71,0,0,0-.45-1.24c.24-.13-.14-.43.14-.43-.1,0-.15-.15-.26-.29,0,.1,0,.14,0,.24-.07-.06-.11-.13-.18-.19a.15.15,0,0,1,.2,0c.06-.15-.07-.21,0-.36-.08-.05-.11,0-.17,0s.11-.26-.08-.28c0-.09.1-.19,0-.24s.22.14.22-.09c-.35,0-.48-.74-.33-.95s-.13,0-.2-.1,0-.08-.08-.1c0-.18.16-.11.2-.28-.32-.17-.28-.74-.3-1.13-.17-.05-.15-.15-.26-.22-.12.25.17.12.13.34-.15-.06-.11,0-.26.11A.32.32,0,0,1,6,31.93c.17.07-.12.26.08.32A.2.2,0,0,1,6.42,32c-.07-.24,0-.51-.07-.76.23,0,.14,0,.2-.2.08.11,0,.25-.07.42.1,0,.13-.14.23-.06-.09-.13,0-.29,0-.43s-.2.1-.28.22c-.1-.2,0-.45-.25-.63-.11,0-.19.08-.31,0-.1-.22.2,0,.24-.24s0,.06.14.09c.22-.27,0-.76.23-1.07-.29-.27-.16-.6-.18-.91.19-.13.19.19.41.19.13-.24-.29-.26.09-.35a.39.39,0,0,0-.39,0,1.08,1.08,0,0,1,0-.81c-.31-.07-.21-.34-.17-.53s.1,0,.15.07-.06.13-.11.2a.09.09,0,0,0,.12,0l.08.08c.09-.15-.14-.28.11-.43.11.09,0,.18,0,.27.21,0,.1-.23.16-.31.33.24,0-.29.19-.48-.12,0-.34,0-.35-.2.2.11.2-.09.44-.1,0,0-.06-.08,0-.11-.22.06-.18-.19-.38-.24,0-.1.28-.41.08-.64.12-.12.21,0,.31,0,.12-.2.15-.39.29-.49l-.14-.17L7,24.7c.21.15-.06.26-.07.4-.16-.19.1-.34,0-.53.48.06.25-.38.52-.64-.07.1,0,.23-.09.32.2,0,.17-.27.18-.38a1.11,1.11,0,0,1-.3-.12c0-.2.22-.06.3-.13-.07-.06,0-.11,0-.15-.24,0-.21-.21.07-.35-.28.06-.08-.07-.27-.27.26-.17.14.29.39.07-.28-.11-.17-.23-.33-.36.22-.14.14.24.28.2s0-.2-.12-.35c.2-.13.06.13.21.12.34-.25,0-.41,0-.74.12-.06.19,0,.32-.11-.14-.19.07-.3,0-.48.12,0,.2.09.31.09s0,.1,0,.16-.15-.05-.23-.07c0,.22.1.32,0,.55.1-.13.28-.24.24-.41.14-.09,0,.18.13.11a2.28,2.28,0,0,0-.2.45s.11,0,.15,0-.16,0-.23.12a.13.13,0,0,1,0,.18c.48.12-.18.31.08.55-.13.11-.23-.07-.26.1.14.12.32,0,.45.15.14-.07,0-.18.13-.25,0,0-.11,0-.16,0s0-.23.07-.33,0,.12.2.18c0,.14-.09.26,0,.41-.13.11-.24-.07-.26.1.52.3,0,1,0,1.41-.1,0-.19-.15-.31-.1a6.85,6.85,0,0,0,.34-1.21c-.12-.08-.16.13,0,.21-.15.08-.14.22-.29.06a2.11,2.11,0,0,1,0,.35c-.1,0-.19-.12-.32,0,.21.14.13.16.08.33s-.18-.05-.29.07a.79.79,0,0,0,.16.73c-.06,0-.14.07-.2,0s.2,0,0-.14c-.18.2,0,.43-.21.64l.27.26c-.11.07-.22.07-.33.21.27.15.26-.09.4-.14.14.13-.28.26,0,.39-.16.17-.31-.14-.47.07,0,0,.08,0,.12,0a1.35,1.35,0,0,1,0,.84c.18.14.34-.11.31-.23.08.13.46.24.29.38s0-.14-.2-.1.1.14-.07.22c.15.07.2,0,.28.16a.14.14,0,0,1-.23,0c-.15.21.32.15.18.35s-.25-.18-.36,0c.1.13.19.08.29.15a.16.16,0,0,1,0,.15c-.12,0-.14-.18-.32-.12,0,.19-.1.15-.25.36s.14.7.2.94c-.32-.16-.07.62-.13.89-.21,0,0-.34-.28-.44-.14.34.32.52.11.79.06,0,.1-.06.14-.11.2.06,0,.19.22.26-.32.37.13.64-.11.88.26.29.12.55.46.74,0-.14,0-.06.1-.19.37.31,0,.56-.31.7.18,0,.3-.09.47-.08a2,2,0,0,1,.05.5c-.07.08-.14-.12-.25-.17,0,.09.06.59.14.66s-.2.17-.14,0c-.18.08,0,.15.08.22s.09-.08.12-.13c.12.28-.11.93.28,1.23l-.1.26c.11,0,0,.17.18.17-.22.5.31.61.13,1.1.35.21.4.59.38,1-.22-.12-.3-.09-.48-.18.22.34.68.54.58.84.28-.2.57,0,.81-.35.08.19.11.41.18.6.27-.22-.31-.67.05-.9.12,0,0,.2,0,.29.22-.12.2.25.46.24a.31.31,0,0,0-.22.36c.14-.13.25-.06.44,0,0,.19-.06.49.12.35,0,.18-.14.2,0,.33-.06.16-.09.06-.23,0A.64.64,0,0,0,11,40c0,.19-.29.06-.3.25.09,0,.37-.15.33.09.09,0,.22,0,.18-.21.22.11.17.11.39,0s0,.26.1.23,0-.18.07-.27.08.2.21.23c0,.13-.26,0-.23.21.16-.08.24.15.1.17.39,0,.56.35.61.8.07-.06.2-.06.28-.12-.07-.17,0-.12,0-.33-.11,0-.1.08-.11.17-.27-.19-.33-.59-.47-.9.28.11.24.52.53.62a1.43,1.43,0,0,1-.16-.44c.18,0,.14.3.44.22,0,.13-.19.1-.17.27.1,0,.12.07.22.06s-.08.1-.16.11.15.07.11.22c.18-.14.27.14.44,0,.07.24-.18.19-.15.4.2,0,.37.36.31.48.28,0,.11.24.36.31,0,.17-.13,0-.22,0,.06.28.35.29.45.52a.49.49,0,0,0,.31-.2c.09.11.33.21.46.05.1.17-.17.07-.08.24s.25.06.27.24c.18,0,.15-.13.28,0s-.31.11-.36.23,0-.32-.21-.19.2.34.41.33c.07.15-.06.16,0,.29.25,0,.68.09.65.28s.09,0,.09-.07.3.08.32.33c.16-.08.19.05.34,0-.21,0-.15-.41-.42-.31,0-.23.18-.21,0-.46.33-.1.23.17.28.22.23-.08-.06-.2,0-.35-.13.07-.2,0-.2-.12-.16.07-.19-.07-.27.06s.21.11.06.27-.07-.24-.21-.18c0-.17.2-.12.05-.3-.08.27-.14-.1-.25-.17s.1-.16.16-.14-.13-.38-.31-.4c.08-.36-.23-.32-.14-.64-.19-.06-.27.09-.44,0,0-.08.13-.07.21-.09,0-.3-.19-.28-.25-.46-.11,0-.11.1,0,.17-.2.09-.21-.16-.33,0,0,0,.12-.22,0-.22,0-.16.07-.07.21-.08-.06-.23-.33-.22-.29-.56-.32.27-.07-.32-.43-.18.19-.16,0-.18.06-.33.11.07.24.13.21.36.3-.16.38.26.44.55a.44.44,0,0,1,.37-.15c-.26,0-.37-.25-.49-.49s-.27-.46-.64-.31c-.14-.19-.34-.31-.4-.57-.11,0-.12.08-.06.16h-.32c-.07,0-.09-.11-.09-.22.16,0,.14.17.36.11,0-.16-.08-.23-.08-.37h-.21a.32.32,0,0,1-.09-.16c0-.12.14-.12.27-.11-.12-.25-.37.15-.45-.16a.16.16,0,0,0-.13.16c-.1,0-.17,0-.2-.12.35-.12.06-.6.07-.84.2.1.35.65.56.43.14.16.18.4.36.53.18-.14-.12-.24-.12-.37.19,0,.13.11.36,0-.19.29.11.17-.09.47.22,0,.27-.13.33-.28.14,0,0,.23,0,.32s.14.08.31,0c0,.15-.09.14-.07.27.24,0,.07.06.14.2s.26.21.47.22c0,.16-.14.12-.16.23-.18-.07-.28-.43-.47-.17.05.08.22,0,.31.08a.25.25,0,0,0-.05.16c.23,0,.26,0,.26.19.25,0,.17-.24.42-.21,0,0,0,0,.1,0,0,.17-.12.17-.2.24s.13.14.11.31c.09,0,.1-.06.1-.12.23.06.16.49.55.34.22.34.56.37.66.78.21-.09.22.09.34.14.14-.14.12-.2.28-.24a1.26,1.26,0,0,1-.06-.42c-.17.12-.09.11-.29.18s-.2-.24-.44-.17c0-.17.29-.14.39-.25s-.29-.17-.13-.34c-.14-.18-.5-.1-.49-.48.18,0,.24.13.41.13,0-.08-.14-.11-.11-.29-.13.11-.15.09-.1-.08-.38,0-.31-.44-.56-.53,0-.14.11-.11.2-.13,0-.17-.13-.12-.14-.24a.88.88,0,0,0-.11.48.37.37,0,0,1-.15.13c-.07,0-.1-.12-.15-.18s.16-.07.1-.23c-.1,0-.13.06-.2.08s0-.09-.1-.09c.06-.18.12,0,.21-.13s.05.24.24.17A10.89,10.89,0,0,1,14,36.84c-.29.15-.36-.21-.2-.41-.18.06-.25.24-.43.29s.09-.28-.11-.36c0-.06.1,0,.16,0,0-.16-.3-.18-.3-.37.45-.09,0-.45.12-.84-.13-.06-.13.1-.17.18-.12-.22,0-.15-.06-.4-.07,0-.07.14-.15.13s-.06-.11,0-.2a.37.37,0,0,1-.26,0c-.18-.06.13-.19-.13-.22a.19.19,0,0,1,.24-.07c-.08-.38,0-.38-.25-.74a.17.17,0,0,1,.18-.06c-.33-.15-.25-.51-.49-.71a.23.23,0,0,1,.14-.07c0-.1-.19-.15-.38-.2,0-.12.11-.15.22-.09-.23-.31.06-.8-.45-1,.05-.14.18,0,.23-.18.09,0,0,.14.13.15-.15-.24-.47-.51-.39-.91-.18,0-.06.27-.29.15.12-.2.22-.36.12-.48-.26,0,0,.13-.06.24-.19-.06-.12-.2-.19-.29a1,1,0,0,1,.39,0c-.12-.28-.45-.43-.36-.81,0,0,.11,0,.15,0s0-.1.09-.17c-.16-.08-.16,0-.26-.13a.4.4,0,0,0,.22-.16c-.11-.13-.08-.28-.1-.43s.15.07.09.11c.23-.15-.08-.35-.32-.41.09-.16.21,0,.32,0,0-.2-.36-.37-.25-.59.05-.06.2,0,.13.09a.29.29,0,0,0,.18-.29s.06.17.16,0c0,.06-.09.13.09.17s0-.19.06-.29c-.1,0-.31,0-.2-.13-.08,0,0,.05-.12.09a.7.7,0,0,0-.32-.33c.1-.14.21.06.31-.07-.13-.08-.13-.23-.31-.22,0-.25.16-.53.09-.7-.09,0-.18,0-.27-.09.23-.09.34.07.4-.17.16.08,0,.16.07.23.2,0,0-.26.06-.37s-.13,0-.19,0c.09-.09,0-.16.25-.22-.08-.11-.18-.05-.26-.16s.36-.14.07-.31c.09-.08.16,0,.25-.09.1.07,0,.13,0,.2.43-.39.16-1.08.38-1.57a.55.55,0,0,1,.29.17c.07-.09,0-.21.11-.29a.3.3,0,0,0-.27-.08c.05-.24.53-.58.1-.95.2,0,.11.13.24.16a.92.92,0,0,1,.15-.33c-.06-.05-.13,0-.18-.09s.52-.34.23-.53c.11,0,.19,0,.31,0s-.16-.23.05-.24c-.34-.26.27-.39.09-.69.07.05.19,0,.24.05,0-.16-.09-.34.22-.35-.07-.09-.09-.16-.07-.21a.29.29,0,0,0,.16,0c-.1-.07,0-.21,0-.09-.06-.13,0-.24.19-.33-.17-.05-.15-.12-.11-.21s.08.07.11.12.12-.24.24-.32c.11.18-.1.1.08.25.07-.05.16-.08.15-.18s0,0,.06,0l-.12.22a0,0,0,0,0,0,.06l0,.05c-.06-.14-.07,0-.22,0,0,0,0-.08.05-.1-.18,0-.15.44-.35.56.23.05,0,.11.16.2a.51.51,0,0,0,0-.39.34.34,0,0,1,.17.09c-.08.17-.15.35-.23.53a.45.45,0,0,0-.3-.09c.23.11-.15.13,0,.3a.19.19,0,0,1,.25-.16c-.05.11-.09.23-.14.35s-.17-.12-.3-.07l.13.19a.31.31,0,0,1,.13,0c-.09.25-.17.51-.25.77,0,0,0,0-.11,0a.84.84,0,0,0,.05.2.85.85,0,0,0,0,.17l-.15,0c.13.11,0,.14,0,.19l.1.05-.12.53A.17.17,0,0,1,13,23c0,.12,0,.24,0,.36a.62.62,0,0,1-.19-.07c-.1.08.13.1.16.17-.15.08-.26,0-.38-.08-.1.11,0,.27-.31.27.15.06.33,0,.46.14.15-.14-.33-.12-.1-.29a.27.27,0,0,1,.29.16c0,.21-.39.34-.32.56-.23,0-.11-.1-.2-.19-.13.07,0,.18,0,.28a.53.53,0,0,0,.16,0c0,.08-.1.09.06.12-.18.13.2.32-.18.43.17,0,.17.26,0,.27.33.11.29.35.15.51.05.05.1,0,.15.06-.14.13,0,.29-.29.28l.26.19c-.14.18-.26-.06-.39,0,.16.12.12.23,0,.35.13,0,.26.12.39.15-.16.08-.31-.12-.47,0,.38,0,.36.33.2.51.08.13.32.09.25.24s-.31-.08-.24.08c-.11,0-.23,0-.36-.11s0,0,0,.06l-.08.06c.11.08.21,0,.32.08s-.19.14-.29.31c.16.08-.05.21.06.29.21-.14.15-.24,0-.34a.55.55,0,0,0,.27-.16c0,.12.14.08,0,.25.09.1.15-.09.24,0-.19.14-.11.38-.14.59.11,0,.11-.18,0-.23.3-.08.29.18.24.31s0-.18-.17-.08.16.09.07.24c-.39-.09.12.39-.2.65.17,0,.3.2.5.29-.34.08.06.43.19.45,0,.05-.08.11-.14.1.13,0,0,.15.22.21-.25.17,0,.18.18.33-.07.07-.18,0-.23.17.3.24.19.48.43.75-.08.08-.19.06-.15.16.29-.12.19.12,0,.28.2-.15.42-.06.39.12s-.07-.16-.23,0,0,.1-.05.18c.11,0,.17-.12.21,0s-.15,0-.19.06.11.2.23.13c.12.09-.22.11-.11.21a.28.28,0,0,1,.37,0c-.18.15,0,.08-.09.26.15-.08.2,0,.17.16s-.07,0-.18.07c.23-.08.21.43.5.19-.05.14.3,0,.25.19s-.15,0-.35,0c0,.12.12.16.12.28.44-.24.43.21.57.24-.13.08-.25,0-.33,0s.07-.09.13-.09c0-.15-.14,0-.25-.1.06.18.12.19-.05.51.14,0,.14-.12.24-.14-.15.31.47.66.55.91,0,0,.25.08.29-.07.22,0,0,.32.29.12,0,.13-.16.13-.24.2s0-.11,0-.18c-.18,0-.15.21-.31.11.08.12.18.06.38.11a.31.31,0,0,0-.08.15c.16,0,0-.11.19-.21s.06.18.25.11a5,5,0,0,0-.58-1.13c0-.14.16,0,.16-.18s-.12,0-.23,0,.13-.14.25-.15l.29.36a.33.33,0,0,0,.27.3h0c0,.06,0,.22,0,.26s.06-.11.08-.12v0s0,.07,0,.13l.07,0c.11.11.21.22.33.33,0,0-.09.08-.08.18a.25.25,0,0,1,.15-.1l.11.09h0c0,.11-.2,0-.17.17.09,0,.08,0,.08.08a.34.34,0,0,1,.19-.09,1.34,1.34,0,0,1,.15.61c.26-.22.08.18.29.11,0,.15-.1,0-.22.06.08.06.17.1.19.23s.24-.12.22,0c.1-.18.11-.14.32-.19a.25.25,0,0,1-.12-.17,13.64,13.64,0,0,0,6.69,2.78,13.82,13.82,0,0,0,3.46,0,.38.38,0,0,0,.06.13c-.06.13-.14,0-.2.17.14.06.18-.09.28.06.09-.28.37.07.37-.22.05-.09.14.13.21.17a2.19,2.19,0,0,1,.49-.17,4.82,4.82,0,0,0-.35.59,3.66,3.66,0,0,0,2-1.22c.05-.06.13,0,.23,0a.76.76,0,0,0-.09-.18.4.4,0,0,0,.17-.15h0c.1.12.18,0,.23-.1l.31-.13a.22.22,0,0,1,.07.09c-.06.21-.14.08-.13.34.1.08,0-.28.17-.1.06-.11,0-.16,0-.26a.09.09,0,0,1,.1,0c0,.12,0,.28,0,.4s-.06,0-.07.06c0-.24-.17,0-.25.09s-.07-.12-.15-.16c-.17.2-.07.59-.26.74-.06-.13.09-.33.1-.48-.09,0-.26.17-.15.33-.29,0-.44.36-.65.62.19.07.28-.27.4-.43,0,.4-.28.61-.51.45-.16.26-.33.49-.58.4a2.14,2.14,0,0,1-.93.63,4.45,4.45,0,0,0-1,.49c.18.18.33,0,.51.29a.41.41,0,0,1,.54.07c0-.06,0-.11,0-.16.17.24.27,0,.41.06s0,.19-.05.29c.2.13.33-.09.5-.08s0,.2.08.27c.27.06.34-.25.61-.39.13.19-.15.43-.24.57a.24.24,0,0,1,.18.08s0-.07,0-.11.21,0,.22-.2c.07,0,.05.12.14.17a.88.88,0,0,1,.61-.23.24.24,0,0,0-.08-.3.29.29,0,0,1,.14-.2,3.19,3.19,0,0,1,.26.42,1.16,1.16,0,0,0-.53.86,2.12,2.12,0,0,1-1.21.36c.17.29-.16.25-.34.25-.07-.16.18,0,.22-.15-.2-.14-.33.23-.51.31-.14-.09.05-.21-.12-.19,0,.28-.48.35-.73.3-.18.27-.43.18-.71.32,0,.27.26,0,.35.06-.22.18-.82.52-1.26.26-.3.34-1.31,0-1.44.67-.26-.11-.39.23-.6.09,0-.14.16-.08.14-.26-.6.23-1.23.54-1.36,1.07.13.14.37.3.28.49.31.22.85.21.9.72C25.31,47,25.6,47.12,25.65,46.88ZM33.09,7c0,.09.07-.06.12,0-.12.07.11.06.08.2S33,7.09,33.09,7ZM30,6.51a.48.48,0,0,1-.59,0C29.6,6.33,29.76,6.54,30,6.51Zm-.68,0c-.05,0-.12,0-.17-.07s0-.11,0-.15.07,0,.11,0S29.36,6.46,29.29,6.52ZM26.8,5.84c-.05.06,0,.14,0,.2a.58.58,0,0,1-.63,0c.12-.1,0-.21.16-.31C26.5,5.81,26.65,5.75,26.8,5.84Zm.77.19c.14-.09.25,0,.37,0C27.8,6.25,27.56,6.26,27.57,6Zm1.31.06c.12-.09.41,0,.35.14C29.13,6.13,29,6.25,28.88,6.09Zm1.3,0c-.14.25-.36.17-.52.09C29.85,6.06,30,6,30.18,6.11Zm-1.41-.28c-.13.17-.2,0-.31,0s.06.09,0,.12a.27.27,0,0,1-.05-.16C28.55,5.8,28.67,5.73,28.77,5.83Zm-1.68-.4c.08.07,0,.13.1.2s0-.07,0-.11c.16.11.06.19-.06.27s-.09-.13-.14-.09,0,.1-.09.15l-.11-.12C27.06,5.57,27,5.62,27.09,5.43Zm-.77.11a.09.09,0,0,0,0,.12s.11-.08.15,0a.92.92,0,0,1-.61,0C26.11,5.61,26.16,5.54,26.32,5.54Zm-1.11,0c.16.07.53-.08.57.11-.11,0-.23,0-.34,0,.06.08.12,0,.19.12-.11.07-.27.12-.26.28A1.71,1.71,0,0,1,25.21,5.57ZM26,6.2c.09-.14-.14-.29.05-.43a.43.43,0,0,1,.1.51A.22.22,0,0,0,26,6.2Zm5,.64c0,.08,0,.13.05.22-.19.1-.36.14-.46-.09C30.72,7,30.92,6.94,31,6.84ZM24.09,6a.23.23,0,0,1,.34,0,.24.24,0,0,1-.34.06S24.13,6,24.09,6Zm-1.24.17C23,6.07,23,6,23.09,6s.18.07.2.09,0-.13,0-.2c.19,0,.28.16.15.34A2.49,2.49,0,0,1,22.85,6.18Zm-1.74-.49.16-.24c.11.06.16.13.12.22s-.12-.1-.17,0S21.16,5.71,21.11,5.69Zm.92.62c-.09.1-.37.11-.28-.07C21.86,6.37,21.9,6.12,22,6.31ZM20.94,6c.06,0,.18.09.16.16-.22-.07-.29,0-.31.2C20.61,6.14,20.82,6.07,20.94,6Zm-.64.32a.85.85,0,0,1-.53.27C19.92,6.4,20.07,6.21,20.3,6.29Zm-.7.61c0-.17.44-.34.58-.17,0-.32.17-.06.29-.08-.15-.17,0-.36,0-.5.23.12-.13.39.09.51,0-.07,0-.13.06-.22s.33.06.28.18c-.25-.09-.81.83-.8.21C20,6.87,19.7,7.14,19.6,6.9ZM37.37,9.26c.06.08.23,0,.19.24C37.43,9.55,37.24,9.36,37.37,9.26Zm-18.13-2c.06-.21.21-.16.36-.12A.29.29,0,0,1,19.24,7.27Zm1.24,3.15c.16.06.06-.19.21-.27C20.93,10.32,20.57,10.74,20.48,10.42ZM8.35,39.24A.36.36,0,0,1,8,39.16c.19,0,0-.19-.1-.09,0-.15.12-.16.21-.18C8.19,39.07,8.26,39,8.35,39.24ZM7,36.73c-.06-.15-.31-.45-.14-.55A.84.84,0,0,1,7,36.73Zm-.3-.8c-.1,0-.07-.39.08-.4C6.78,35.64,6.88,35.91,6.72,35.93ZM6.4,33c-.17-.1-.41-.19-.31-.38C6.26,32.74,6.41,32.85,6.4,33Zm-.58-.6c-.17.12-.06.19-.14.38-.11-.26-.59-.37-.32-.6C5.48,32.4,5.63,32.34,5.82,32.41Zm-.56-.29c.06-.2.18-.14.24-.31.12.08.12.19.16.3C5.51,32.07,5.41,32.2,5.26,32.12Zm.87-.25c-.09,0-.16-.29-.29-.18S6,32,5.77,32c0-.14-.14-.28,0-.46.09.06.14,0,.19-.09A.43.43,0,0,1,6.13,31.87Zm-.6-.11c-.23-.05,0-.41,0-.39A.5.5,0,0,1,5.53,31.76Zm.16-1.9c0,.17-.24.22,0,.41.13,0,.05-.25.25-.17a.32.32,0,0,1-.18.36c-.26-.17-.43-.59-.19-.71C5.52,29.85,5.62,29.79,5.69,29.86Zm0-.65a.45.45,0,0,1-.13.26.22.22,0,0,1,0-.32A.29.29,0,0,0,5.69,29.21Zm-.94.19a.56.56,0,0,1,0-.63C4.82,29,4.74,29.19,4.75,29.4Zm1.13-.53c-.14-.1,0-.22,0-.33C6.15,28.63,6,28.75,5.88,28.87Zm-.57-.72c-.17,0-.11-.27-.37-.35.08-.23.19.16.27,0s-.17-.21,0-.33C5.39,27.71,5.32,27.93,5.31,28.15ZM6,27.67s-.28-.08-.2-.18S6.14,27.5,6,27.67Zm-.29-.89c-.14.18-.42.11-.43,0A.32.32,0,0,1,5.74,26.78Zm.76-.65c0,.05,0,.1-.09.15l-.18-.2C6.32,26,6.41,26.07,6.5,26.13Zm-.91.09c-.25.06,0,.19-.2.36-.15-.18,0-.35-.11-.53a.36.36,0,0,0,.13-.19C5.49,26.05,5.33,26.09,5.59,26.22ZM6,25.29c0,.07,0,.13-.13.19-.05-.17-.18-.11-.1-.28C5.79,25.28,5.88,25.16,6,25.29Zm-.46.49c0-.23-.17-.88.25-.82C5.45,25.19,5.78,25.68,5.49,25.78Zm.45-1.9c-.06-.05-.13,0-.19-.06.17-.07,0-.19.16-.26C6,23.68,6,23.79,5.94,23.88Zm.54-1.62L6.3,22c.25-.06,0-.25.2-.31A1,1,0,0,1,6.48,22.26Zm8.78,20.92c-.07,0-.09.1-.21.09s-.08-.11-.09-.21C15.12,43,15.26,43,15.26,43.18Zm-.57-.42c-.13.22-.54-.24-.2-.25C14.37,42.76,14.63,42.59,14.69,42.76ZM14,41.56c0,.16-.2.2,0,.33-.39,0-.1-.36-.24-.53C13.9,41.3,13.75,41.65,14,41.56Zm-.5-1.34c-.14.15,0,.16.21.1-.06.26-.52.2-.54,0A.29.29,0,0,1,13.48,40.22Zm2.29.78c0-.09-.29-.14-.07-.25C15.67,40.87,16,40.87,15.77,41Zm-.13-.56v.16c-.07,0-.09.09-.2.08.09-.21-.06-.1-.11-.25s0-.15.1-.17C15.54,40.39,15.41,40.47,15.64,40.44Zm-.37-.58c.1.06.28,0,.26.23C15.31,40.16,15.26,40,15.27,39.86Zm.87.33c-.16-.16-.41-.21-.51-.43A.5.5,0,0,1,16.14,40.19Zm-1.52-.83c-.17.06-.16-.07-.2-.14l.21,0ZM9.54,36.52c0,.13-.06.26-.18.24S9.39,36.47,9.54,36.52Zm0,1.54c.15.13-.14.32-.2.13C9.46,38.2,9.43,38,9.55,38.06Zm0-.06c0-.11.1-.09.15-.14s0-.15-.07-.18a.3.3,0,0,1-.11.2c-.18-.05-.12-.21-.27-.06,0-.08-.13-.13,0-.3.1,0,.12.12.17,0a1,1,0,0,1-.14-.37c.2.06,0,0,.1-.15s0,.19.17.21c.12-.22,0-.29,0-.45s.2-.32.25-.11c-.16,0,0,.15-.07.27.28,0,.13.28.31.35a.37.37,0,0,0,0,.45c.09,0,.07-.15.15-.14C10.16,38,9.92,38,9.56,38Zm2.26,1.76c0-.21-.12-.07-.2-.23,0,.08-.18.07-.28.09a.47.47,0,0,1-.2-.24.6.6,0,0,1,.3-.19c-.33,0-.38-.16-.52-.28.12-.3,0-.39-.05-.67.23,0,.34.39.45.6a.16.16,0,0,1,.13-.15c.14.18.13.27,0,.27C11.56,39.07,12,39.4,11.82,39.76Zm-.24-1.22c.18,0,.28.26.07.28C11.64,38.71,11.56,38.67,11.58,38.54Zm1.29,1c0-.09-.19.07-.15-.16h.22C12.92,39.49,12.93,39.58,12.87,39.58Zm-.27,0v-.11c-.13,0-.2.12-.29.21,0-.11-.14-.08-.08-.23.4.05-.08-.29.14-.37C12.39,39.22,12.81,39.3,12.6,39.53Zm-.3-.66c-.07,0-.07.08-.08.15-.19-.08-.11-.38-.31-.45C12.13,38.58,12.17,38.69,12.3,38.87Zm-.23-.34c-.16,0-.26-.25-.11-.33C12,38.34,12.1,38.37,12.07,38.53Zm-.66-.28-.21,0c0-.11.08-.11.09-.21S11.45,38.11,11.41,38.25ZM11,38.14c-.08,0-.05-.17-.12-.23s0,.32-.21.24.13-.1.12-.31l.27,0C11,38,11.16,38.12,11,38.14Zm.33-.28c0-.18.18,0,.15-.2.14,0,.19.1.17.24A.27.27,0,0,1,11.32,37.86Zm2.77.55c-.08-.07-.34,0-.29-.15C14,38.25,14.14,38.22,14.09,38.41Zm-.38-.25h-.16c-.09,0-.06.17-.17.15.08-.16-.17,0-.08-.2.17,0,.25-.12.43-.11ZM13,38a4.53,4.53,0,0,0-.44-.23c.1,0,.14,0,.14-.15l.26,0A2,2,0,0,1,13,38Zm-1.69-.63c-.07,0-.07.09-.13.1,0-.25-.28-.29-.26-.54C10.94,37.16,11.29,37.16,11.26,37.41Zm1.45-.06c-.33.15-.43-.27-.13-.37C12.39,37.2,12.71,37.17,12.71,37.35ZM12.26,37c-.12-.19-.23.07-.33-.14C12.12,36.79,12.24,36.78,12.26,37Zm.5-.52c-.06,0-.12,0-.13.09s.16-.06.27,0c0,.21-.27.12-.41.17,0-.12.18-.17.06-.2s-.14.13-.25.13l0-.2c.09,0,.18,0,.19-.08S12.78,36.37,12.76,36.48Zm-1.38-.17-.21,0c.06-.08.09-.2.18-.23C11.27,36.19,11.46,36.16,11.38,36.31Zm-.15-.56c-.23,0-.19-.18-.22-.31C11.09,35.54,11.22,35.61,11.23,35.75Zm1.8,0c-.18,0-.21-.19-.19-.37C13.05,35.4,13.11,35.52,13,35.74Zm-2.62-.93c0,.06,0,.08,0,.16s-.43-.08-.4-.28Zm-.56.28c.33.15.7-.13.72.19-.22-.11-.75-.11-.71.26-.13.07-.15-.06-.24-.13.18-.16-.06-.27,0-.46.28,0-.07-.14.12-.3C9.83,34.75,9.74,35,9.85,35.09Zm1.45-.55c-.19,0-.18-.33-.06-.38C11.25,34.3,11.37,34.37,11.3,34.54Zm1.08-.29c-.2,0-.06-.2-.28-.2a.44.44,0,0,1,.14-.18C12.34,34,12.48,34.05,12.38,34.25ZM8.13,32.71c.13-.24-.21-.33-.05-.57C8.25,32.1,8.4,32.74,8.13,32.71ZM11.6,32c-.17,0-.1-.12-.26-.14C11.46,31.67,11.66,31.9,11.6,32Zm-3.38-.42c-.09.1,0,.14-.1.25a.82.82,0,0,0-.33-.18c.16-.17,0-.27.14-.42C8.1,31.36,7.91,31.55,8.22,31.61Zm-.43-1.18c-.14-.11-.11-.25-.12-.39C7.82,30.15,7.91,30.27,7.79,30.43Zm3.13-.18c-.13-.05-.1-.13,0-.22S11,30.15,10.92,30.25Zm-3.28-1.6c-.07.1.09.18,0,.29C7.46,28.88,7.52,28.61,7.64,28.65Zm.05.43c-.1-.1-.17.13-.28,0C7.46,28.91,7.73,28.93,7.69,29.08Zm3.47.3c-.12,0,0,.09-.15.09a.25.25,0,0,1,.05-.46C10.86,29.17,11.13,29.26,11.16,29.38ZM9,29c-.12-.06-.09-.15,0-.24S9.1,28.91,9,29Zm-.55,0c.06,0,.14,0,.05.09a.35.35,0,0,1-.25-.1c.13-.21-.11-.37-.06-.56C8.47,28.53,8.38,28.76,8.44,29Zm.13-1.2c-.15.07-.21.12,0,.24a.31.31,0,0,1-.19.12c-.15-.08-.11-.17-.17-.26.16-.11.11-.2.14-.29C8.41,27.77,8.41,27.71,8.57,27.82Zm-.78-.62A.3.3,0,0,1,8,27C8.13,27.07,7.92,27.29,7.79,27.2ZM8,26.8a.26.26,0,0,1-.11-.32C7.88,26.59,8.13,26.69,8,26.8Zm-.24-1.1c0,.05,0,.14-.12.1-.08-.22.08-.31.22-.45.07,0,.13,0,.19.12-.1.13-.18,0-.28.09.15.19.16.27.38.3,0,.12-.14.08-.25.13S7.79,25.8,7.74,25.7Zm.37.58c-.18,0-.21-.19-.07-.28C8.2,26.09,8.08,26.18,8.11,26.28Zm3,.23a.36.36,0,0,1-.1-.44A.42.42,0,0,1,11.06,26.51Zm-2.3-.76a.36.36,0,0,1-.2.09.22.22,0,0,1-.1.41c.17-.14-.14-.28.1-.41-.14-.12-.13-.24,0-.34C8.76,25.64,8.53,25.68,8.76,25.75Zm-.51,0c-.37-.05-.18-.47,0-.7A.82.82,0,0,1,8.25,25.76ZM8,24.62c.17.19,0,.12-.18.26C7.59,24.76,7.83,24.6,8,24.62Zm.44.32c-.05,0-.11.09-.16.06.12-.08-.24-.19,0-.25Zm.33-.11c-.22-.24.17-.44.4-.33C9,24.59,8.87,24.56,8.72,24.83Zm2.95-.08a.2.2,0,0,1-.25,0c.07-.11-.14-.26.1-.36C11.66,24.54,11.57,24.64,11.67,24.75Zm-5-3.19c0-.14-.2-.32-.05-.41C6.73,21.3,6.86,21.47,6.69,21.56Zm1.79-.38c.09.06.22,0,.32,0s0,.16-.1.22C8.65,21.32,8.4,21.25,8.48,21.18Zm-.32,0c-.13-.13,0-.18,0-.25l.1.18Zm.64.33c.19,0,.06-.39.22-.33C9,21.28,9.08,21.66,8.8,21.49Zm-.07-.31c-.09,0-.19,0-.23-.18C8.66,20.86,8.88,21.09,8.73,21.18Zm-2,0a.9.9,0,0,1,.2-.54C6.94,20.82,7,21.17,6.72,21.17ZM15.37,35c0,.11-.27.06-.22,0S15.47,34.83,15.37,35Zm0-.41c-.13,0-.09.15-.22.1l.06-.18C15.28,34.48,15.35,34.5,15.33,34.58Zm-5-17c.06-.07.08-.17.14-.24.06.17.19.24.07.36C10.5,17.65,10.36,17.74,10.33,17.62Zm.72-1.21a.36.36,0,0,0,.3.12c-.14-.11-.14-.13-.07-.25s.12,0,.18.08c-.13-.18,0-.1.06-.21-.19,0-.1-.2.05-.21s0,.17.09.35c-.17.17-.28.12-.13.32-.07.1-.2.06-.27,0a.54.54,0,0,1-.6.55A.76.76,0,0,0,11.05,16.41Zm-2.59.29c0-.1-.16-.3,0-.33S8.6,16.66,8.46,16.7Zm5-1.34c.16,0,.2-.39.42-.22C13.79,15.22,13.65,15.48,13.47,15.36ZM13.11,15c.08,0,0-.11,0-.15.24,0,.25-.24.47-.28A.48.48,0,0,1,13.11,15ZM16,17h0a.12.12,0,0,1,.12-.14Zm-4.07-1.27c0,.1-.1.34-.23.12C11.89,15.89,11.79,15.54,11.94,15.71Zm-1.86-.12c0,.15-.14.26-.18.41C9.81,15.93,9.91,15.49,10.08,15.59Zm1.12,1.52,0,.09s.06,0,.06.05c-.25.06.13.12.14.23s0,.15-.22.14c0-.2-.15-.27-.2-.43A.31.31,0,0,0,11.2,17.11Zm-.79.08c-.15.1,0,.35-.32.38,0-.22.18-.22.09-.39C10.26,17.17,10.37,17.12,10.41,17.19Zm4.86.75,0,.08S15.23,18,15.27,17.94ZM45,34.42l-.07-.21.16-.05C45.14,34.32,45,34.35,45,34.42Zm-.05-.33c.1-.17.1-.38.29-.5A.37.37,0,0,1,44.9,34.09Zm.2-.58c.17-.08,0-.31.14-.4C45.39,33.31,45.28,33.6,45.1,33.51Zm1.12-6.65c-.13-.15.06-.27,0-.41A.27.27,0,0,1,46.22,26.86Zm-.48-4.22c.06-.19-.2-.11-.11-.28S46,22.66,45.74,22.64Zm.11-.46c-.14,0-.12-.14-.31-.22.06-.13.15,0,.22-.11C45.89,22,45.85,22.07,45.85,22.18Zm-1.34-3.74c.13-.22-.26-.3.07-.38C44.53,18.17,44.72,18.4,44.51,18.44Zm-.25-1.21c0,.11.06.19,0,.33a.65.65,0,0,1-.38-.31l.06-.15C44.06,17.25,44,17.24,44.26,17.23ZM43.14,15.8c.09-.12-.06-.32.12-.36C43.16,15.62,43.41,15.78,43.14,15.8ZM13.25,11.48c0-.13-.23-.25,0-.33,0,.1.18.06.21.14S13.39,11.52,13.25,11.48ZM18,11.22c.27.13,0,.45-.17.35,0-.07-.06-.11-.06-.18C18,11.27,18.07,11.57,18,11.22Zm1.06.24q0-.24.24-.15C19.28,11.42,19.24,11.54,19.1,11.46Zm-.87-.64c.21.06.13.26.11.43-.07,0-.06.11-.16,0C18.16,11,18.29,11.11,18.23,10.82Zm-.43.35c0,.17-.12.12-.05.25-.21,0-.29,0-.2.29-.16,0-.1-.13-.17-.18l0,.25c-.26-.11-.18-.29-.43-.2.11-.12.33-.3.48-.14,0-.18.34-.09.22-.35Zm-4.51-.34c0-.14,0-.22.18-.19S13.43,10.87,13.29,10.83Zm-.64-.29c0,.06,0,.26.14.35,0-.12.15-.1.28-.08-.08.2-.07.5-.3.51C12.86,11,12.25,10.64,12.65,10.54Zm-.43.79c.14,0,.07-.23.28-.14C12.52,11.33,12.29,11.48,12.22,11.33Zm.44-.07c0,.24-.13.23-.23.31C12.49,11.45,12.5,11.27,12.66,11.26Zm4.82.94c.09,0,.06-.18.21-.07S17.52,12.35,17.48,12.2Zm-1.14,0c0,.18-.07.24-.18.26S16.14,12.06,16.34,12.17Zm-.95.57c.29,0,0-.36.27-.35-.06.22,0,.14,0,.32S15.46,13,15.39,12.74Zm0,.16c.35.15.33-.17.56-.16.06.25-.35.3-.51.42C15.51,13.05,15.4,13,15.44,12.9Zm.54.33c0,.16-.06.19-.15.22S15.86,13.22,16,13.23Zm-2.16.26c.3,0,.43-.43.66-.32C14.26,13.24,14.1,13.8,13.82,13.49Zm.92,0c0,.11,0,.2-.14.23A.14.14,0,0,1,14.74,13.52Zm-1.54.58c.25,0,.12-.39.38-.38C13.46,13.83,13.43,14.39,13.2,14.1Zm-.08.25a.31.31,0,0,0,.08.2h-.11c-.1-.17-.21-.15-.37-.06C12.72,14.22,12.89,14.32,13.12,14.35Zm-3.59-.28a.4.4,0,0,1,.1.27c-.22,0-.14.15-.32.15v-.11C9.49,14.38,9.38,14.2,9.53,14.07Zm-1,.44c.16-.14.14-.42.43-.47-.09.19.16.29.07.44s-.29-.21-.35-.05.17.07.16.25C8.68,14.71,8.61,14.6,8.53,14.51Zm.67,0a.27.27,0,0,1-.16.36C9.08,14.74,9.05,14.56,9.2,14.51Zm2.55.75c.48.09.45-.44.79-.58a2.88,2.88,0,0,1-.4.72c.11,0,.23,0,.24.14-.29-.17-.15.06-.39.12C11.94,15.47,12,15.39,11.75,15.26Zm-3.07-.21c0,.09.16,0,.19.08-.13,0-.07.21-.24.22S8.56,15.09,8.68,15.05Zm-.52.75c.19-.11.22-.33.41-.44,0,.25-.26.39-.37.6Zm2.74.47a3.37,3.37,0,0,0,.36-.3.47.47,0,0,1-.08.32C11.16,16.2,11,16.5,10.9,16.27ZM8.09,16a.28.28,0,0,0,.1.15c-.12,0-.23.32-.35.21C8,16.28,7.87,16,8.09,16Zm-.47.19c.08.15,0,.18,0,.34.14-.05.14-.15.23,0-.1.08-.18.4-.38.29C7.48,16.6,7.38,16.34,7.62,16.18Zm-.43,1.14c.24-.12,0-.43,0-.54.26-.06.12.15.28.32-.18,0-.06.15,0,.25S7.24,17.4,7.19,17.32Zm2.59.48c.08.11.11-.13.24-.11.05.2-.08.29-.18.41C9.76,18.07,9.74,17.88,9.78,17.8ZM9.11,19c.09-.08,0-.23.17-.28S9.3,19.08,9.11,19Zm-1.23-.14c.07.13.08.22-.06.26C7.74,19,7.74,18.87,7.88,18.83Zm.82,1c.1-.07.06-.2.16-.28C8.93,19.67,8.89,19.94,8.7,19.83Zm-.2.31c-.06.05,0,.16-.14.18S8.43,20,8.5,20.14ZM7,20.6a.23.23,0,0,1,0-.31A.17.17,0,0,1,7,20.6Zm1.66-.23c.26-.08.14-.3.32-.41.12.14.28.08.27.29-.16.12-.21,0-.32,0s-.08.19,0,.33C8.76,20.63,8.69,20.51,8.63,20.37Zm.52.18c-.13-.23.17-.1.27-.26C9.44,20.41,9.3,20.59,9.15,20.55Zm.44-.17c.12-.05-.07-.15-.1-.18l.2-.07C9.79,20.25,9.76,20.49,9.59,20.38Zm1.06-.5-.15,0c-.08-.11-.08-.2.05-.22Zm-.86-1.07a.73.73,0,0,0-.43.68.59.59,0,0,1,.28.34c-.29-.1,0,.15-.17.22a2.3,2.3,0,0,0-.35-.7c.41-.07.21-.59.31-.86.05.06,0,.26.15.22-.05-.16.05-.26,0-.43-.05,0-.08.12-.15,0,.18-.06.09-.46.31-.36-.17.11,0,.47.23.42-.25-.14.1-.47.22-.42-.07.11-.34.39,0,.43a.12.12,0,0,1,.11-.13c.07.31-.43.21-.55.3Zm4.41.4a1.63,1.63,0,0,1,.69-.87c0,.06,0,.1,0,.12h0c0,.06-.25,0-.16.17h.05l0,.06a.37.37,0,0,0-.15,0c.11.2-.21.13-.09.34,0,0,0,0,.08-.06a1.71,1.71,0,0,0-.13.23.25.25,0,0,0-.1-.08C14.39,19.18,14.27,19.18,14.2,19.21Zm-.09.52c0-.08,0,0,.1,0a.3.3,0,0,1,0,.08S14.13,19.8,14.11,19.73Zm-.08.14a.17.17,0,0,1,.12,0L14.1,20A.13.13,0,0,1,14,19.87ZM12.92,24.2l0,.23A.17.17,0,0,1,12.92,24.2Zm-.29,2.18a.42.42,0,0,1,.2-.1,1.15,1.15,0,0,1,0,.18s-.07.07-.05.13C12.6,26.52,12.78,26.45,12.63,26.38Zm.18,1.15a1.69,1.69,0,0,1,0,.55A.41.41,0,0,1,12.81,27.53Zm.13,1.74c-.12.12.17.14,0,.26C12.84,29.49,12.73,29.3,12.94,29.27Zm1.58,3.09.09.17C14.53,32.5,14.45,32.46,14.52,32.36Zm-.47.1c0,.09.16.26,0,.33S13.87,32.55,14.05,32.46Zm.56.34.08-.14.06.11h0a.22.22,0,0,0,.14.17,1.19,1.19,0,0,0,.09.15C14.79,33.06,14.73,32.87,14.61,32.8Zm.52.57c-.21.12-.29,0-.24-.18a.24.24,0,0,0,.18.08c.13.21.27.41.42.61-.07,0-.12-.1-.25,0C15.29,33.63,14.87,33.65,15.13,33.37Zm.43.61a.44.44,0,0,1,.08.11v0C15.51,34.15,15.52,34.07,15.56,34Zm.06.33c-.09,0-.15,0-.16-.09a.41.41,0,0,0,.23-.07l.07.08C15.7,34.24,15.64,34.22,15.62,34.31Zm2.18,2.1c-.08,0-.1-.07-.21,0,.17-.19,0-.21-.13-.24a.13.13,0,0,1,0-.06l.2.17v0h0l.12.11ZM30.4,39l0,0,.05,0A.64.64,0,0,0,30.4,39Zm2.09-.87.14-.06c-.05.21-.09.48-.33.46A3.52,3.52,0,0,0,32.49,38.11Zm9,1.92c0,.26-.1.35-.19.49A.39.39,0,0,1,41.47,40Zm-9.6,1.67c0-.11.06-.27.18-.17C32,41.67,32.06,41.82,31.87,41.7Zm.36.19s-.06,0-.1,0c.14-.09.28-.1.13-.33.07,0,.17.09.2.19s-.08.26-.1.36S32.29,42,32.23,41.89Zm7.07,1.22c.1-.11.12-.34.34-.28-.22.14-.13.41.2.44a.32.32,0,0,1-.1.21C39.46,43.45,39.64,43.1,39.3,43.11Zm-4.19,1.66c.13.07.13-.18.27-.07S35.11,44.93,35.11,44.77Zm-.52.07c-.18.09-.29.37-.52.31C34.22,45,34.36,44.79,34.59,44.84Zm-1,1a.22.22,0,0,0,0,.17c-.14-.09-.18-.08-.16.05C33.23,46,33.53,45.76,33.63,45.87Zm-.33-.56c.08-.11.15-.21.3-.09A.21.21,0,0,1,33.3,45.31Zm-.07,0c.18.12-.12.13,0,.25.1-.13.31-.21.36-.06-.21.16-.22.21-.35.51-.14-.14-.2,0-.27.11a1,1,0,0,1-.33-.32c-.16.2,0,.32.12.46-.35,0-.41-.38-.28-.62C32.8,45.87,32.93,45.28,33.23,45.33Zm-6.71.19c0-.15.2-.24.31-.23S26.63,45.63,26.52,45.52Z"/><path d="M5.92,20.14c.06.07.07-.09.12,0-.22-.55.21-.87.2-1.35a2.19,2.19,0,0,0-.47,1c0,.06.11,0,.18,0S6,20.05,5.92,20.14Z"/><path d="M18,38.16c.12,0-.13-.14,0-.3-.1,0-.13.14-.19.2S18,38,18,38.16Z"/><path d="M17.37,37c-.28-.18-.39-.38-.78-.45,0,.09.06.11,0,.15s.1,0,.22,0c-.15.13.27.33.08.36S17.21,37.1,17.37,37Z"/><path d="M17.69,44.91c-.19-.19-.25-.06-.38-.07s.05.07.05.17C17.43,44.88,17.52,45,17.69,44.91Z"/><path d="M16.87,36.48c-.1,0-.1-.18-.29-.13S16.77,36.44,16.87,36.48Z"/><path d="M14.93,41.19c.08.13.15.28.39.21-.05-.16-.16-.11-.07-.31-.05,0,0,.07-.05.11S15.08,41.12,14.93,41.19Z"/><path d="M14.08,36.49a1.45,1.45,0,0,1-.32.09c.16.05.31.27.45.21C14,36.73,14.19,36.62,14.08,36.49Z"/><path d="M9.44,41.28c0-.08,0-.16.07-.16S9.36,41,9.28,41s.11.21.16.32S9.47,41.29,9.44,41.28Z"/><path d="M7.74,36.92c0,.19.33.19.23.44.13,0,0-.62-.28-.69C7.69,36.74,7.94,36.9,7.74,36.92Z"/><path d="M7.33,35.26c.14.13.1-.16.24,0,0-.18.24-.37,0-.5C7.26,34.9,7.66,35.16,7.33,35.26Z"/><path d="M11.66,27.32c.16.05.05-.11.11-.15s-.17,0-.12-.08-.05,0-.08,0l-.08.06c.06,0,.3.12.12.08S11.72,27.26,11.66,27.32Z"/><path d="M6.55,30.88c.14,0,0-.35.06-.49.24,0,.35-.34.41-.46a2.42,2.42,0,0,0-.63.3c.39,0,0,.25.05.51C6.54,30.73,6.59,30.76,6.55,30.88Z"/><path d="M7.07,29.5c.15-.08,0-.43.08-.61-.15-.1,0,.26-.21.17C7,29.12,7.17,29.31,7.07,29.5Z"/><path d="M6.64,29.52c-.07,0-.12.08-.18.15a.19.19,0,0,1,0,.3c.13.14.14,0,.07-.09a.15.15,0,0,1,.19-.06c0-.07,0-.13,0-.2S6.46,29.79,6.64,29.52Z"/><path d="M6.49,28c0,.06,0,.12,0,.19s.18,0,.28.09C6.72,28.16,6.62,28.17,6.49,28Z"/><path d="M5.15,26.33,5,26.2c-.11.08-.22.15-.16-.08-.1-.1,0,.12-.16.16.14,0,0,.06.16.17C5,26.29,5.06,26.54,5.15,26.33Z"/><path d="M7.71,23.58c0,.05,0,.08,0,.11s.1,0,0,0a.25.25,0,0,1,.22.1C8.06,23.67,7.81,23.47,7.71,23.58Z"/><path d="M13.37,21.41c-.09-.12.25-.07.06-.23-.22,0-.12.14-.18.21s.11,0,.15.06S13.4,21.4,13.37,21.41Z"/><path d="M5.24,21.85c-.25-.15,0-.39-.09-.62,0,0-.36.55-.16.64a.41.41,0,0,0-.18.47C5.07,22.2,5,22,5.24,21.85Z"/><path d="M5.37,21c0,.13-.13.22,0,.38.08-.2,0-.46.17-.63-.42-.16.27-.59.16-.93-.06,0-.15,0-.2,0,0,.18.12.41-.2.5.07.29-.11.51-.18.76C5.2,21.16,5.29,21.07,5.37,21Z"/><path d="M4.9,20.51c-.14.38-.1,1-.5,1.14C4.81,21.68,5,20.76,4.9,20.51Z"/><path d="M5.74,18.77A3.78,3.78,0,0,0,6,18.34C5.85,18.27,5.75,18.62,5.74,18.77Z"/><path d="M7.1,16c.23.16-.21.27-.1.51-.17.08-.19-.24-.3,0,.22,0,.2.16.09.33a2.79,2.79,0,0,0,.72-1C7.23,15.77,7.36,16.05,7.1,16Z"/><path d="M6.71,16.28c-.09-.15-.12.12-.27.09.08.21.13.19,0,.32C6.6,16.78,6.6,16.38,6.71,16.28Z"/><path d="M7.55,15.67A1.73,1.73,0,0,0,8.1,15C7.62,14.85,7.61,15.4,7.55,15.67Z"/><path d="M10.39,12.37c.1-.06.15-.18.26-.34h-.16C10.55,12.24,10.35,12.19,10.39,12.37Z"/><path d="M11.83,10.31c0-.14-.15,0-.23,0l0,.34C11.77,10.59,11.56,10.36,11.83,10.31Z"/><path d="M14,8.94a.31.31,0,0,1,0-.17c-.24,0-.29.18-.45.26C13.8,9.29,13.62,8.73,14,8.94Z"/><path d="M16.89,7.32c.13,0,.17-.27.36-.17,0-.42.29-.28.47-.41s-.15-.11,0-.25c-.17.19-.45.12-.59.38-.09,0-.08-.11-.19-.14.06.12-.07.26-.17.3s0,.1,0,0S16.87,7.23,16.89,7.32Z"/><path d="M23,5.37c.22.15.39-.27.62-.07,0-.07-.08-.13-.14-.19C23.32,5.37,23.12,5.11,23,5.37Z"/><path d="M27.59,5.08c-.17,0-.34,0-.5-.09C27.08,5.14,27.57,5.2,27.59,5.08Z"/><path d="M30.72,6.41a1.08,1.08,0,0,0,.15-.28c-.08-.08-.19-.06-.31,0,0,.15.15,0,.22.06S30.53,6.2,30.72,6.41Z"/><path d="M43,14.31s.06,0,.07,0l0-.11c-.16,0-.1-.18-.17-.26C42.7,14,43,14.16,43,14.31Z"/><path d="M45.77,35.94s0-.08.1-.09l0-.11c-.18.14-.07-.25-.26-.11C45.57,35.87,45.79,35.7,45.77,35.94Z"/><path d="M44.44,37.06c-.31.06.26.15,0,.28.08.14.23-.07.14-.2C44.52,37.18,44.45,37.16,44.44,37.06Z"/><path class="cls-6" d="M6.72,42.06s5.57-6.52,6.39-8.34S17.46,26,17.46,26l5.16-7.28s3.29-3.93,3.46-4.22,3.76-3.23,3.88-3.47,1.87-2.23,1.87-2.23,1.36-2.19,2.7-2.52a3.34,3.34,0,0,0,1.94-1.94s3.32-2.54,3.75-1.7-.54,3.52-.54,3.52,2.55-.52,2.66.12S39.73,13,38.22,14.21c0,0,.48.67-.36,1.46s-1.94,3.73-3.8,5-3.21,4.92-5.85,6.93a93.41,93.41,0,0,0-7.59,7.3s-2.23,5-3.46,5.09-5,1.74-5,1.74A5,5,0,0,0,8.89,46C8.67,49.35,3,46,3,46Z"/><path class="cls-7" d="M29.37,15.13S29,13.8,28,15.13a22.42,22.42,0,0,1-4.28,4.51c-1.7,1.23-1.35,2.41-2.18,3.29A31.9,31.9,0,0,0,19.43,26a33.17,33.17,0,0,1-2.5,3.46c-1.23,1.41-1.35,2.7-2.41,4.87s-3.66,4.61-3.46,4-2.17,2.57-3.23,3.42S2.67,45.16,3.9,45.93s3.4.76,3.64.88a3.94,3.94,0,0,0,1.15,0s.93-5,4-5.75,5.28-1.59,6.22-3.64a12.58,12.58,0,0,1,3.41-3.87A28.16,28.16,0,0,1,28,28.15a15.63,15.63,0,0,0,4.81-6.34,12.38,12.38,0,0,0,3.85-4.59l1.24-1.55s.84-.39.4-1.94A8.91,8.91,0,0,0,41.57,8c.53-3.75.77-2.23.77-2.23S38.58,6.5,38.58,7s-1.82,1.76-3.4,1.23-1.76.12-1.47.47,3,.7,3,.7-3.11-.42-3.34.46S35,11,35,11v.53s-3-.22-2,.39.57,1,.57,1l-.17.68s-1.7-.21-1.7.58,3.16.62,3,1.2-2.6,1.43-3.35,1A20.51,20.51,0,0,1,29.37,15.13Z"/><path class="cls-8" d="M36.62,17.22a7.71,7.71,0,0,1-3.09,3.32c-1.21.75-1.35,1.52-2.17,3.17s-2.94,4-4,4.44-1.81,1.63-3.42,3-1.35,1.63-3.07,3.24-4,3.84-4.42,4.08.94-.17,1.42-.49-.29,1.69-1.55,1.65.56-.9-1.26,0a32.53,32.53,0,0,0-4.86,2.87c-.22.27-.4,1.16-.74.79s-.56-.46-1.16.71S6.94,46.33,7,45.6s-1.11.26-.57-.53S7.31,43.84,6,45s-2.52.74.1-1,2.88-2.62,2.21-2.59-.74,0,.12-1.54,1.37-2.76.28-1.28a11.76,11.76,0,0,1-2.78,3.06c-1.23.89-1.21,1.18-.84,1.09s0,0-1.34.86S2.15,45,2.07,45.32s-2,1.41-.5,1.34,1.88.05,2.08.5-.13.32,1.27.42,1.14.43,1.27.94.78-.11,1.16.14.59,1.87,1.78.14,1-4.28,1.19-5,0-1.22,2.43-2.12,2.69-1.49,3.37-1.31,1.23.63,2.57-1.58,1.1-2.4,2.43-3.33a7.61,7.61,0,0,0,2.31-2.89A15.94,15.94,0,0,1,25.85,30a9.81,9.81,0,0,1,2.37-1.67,9.43,9.43,0,0,0,3.17-3.39,11.92,11.92,0,0,1,3.23-4.25c1.63-1.14,1.88-3.45,3.24-5C37.86,15.67,37.26,15.78,36.62,17.22Z"/><path class="cls-8" d="M42.8,5.17c-2.28.94-3.83,1.44-2.35,1.22s1.6,0,.34.67-3.16,2.46-4.52,2.29S35,8.42,34,8.43s-1.39-.46-.77-1,.72-1,1.84-.26a1.57,1.57,0,0,0,2.55-.56c.67-1,.34-1.85-.15-.92S36.72,7.26,35.93,7s-1.21-.77-.6-.93,1.31.31,1.48-.8.42-1,.78-1.26.55-1.07-.69-.3a7.41,7.41,0,0,0-2,1.67,3.39,3.39,0,0,1-1.42,1,4.74,4.74,0,0,0-1.65,1.38c-.7.78-2.86,2.12-3.56,2.8s-.22-.11-2,1.33-2.93,4.19-3.35,4.85a19.41,19.41,0,0,1-3.46,2.66,2.74,2.74,0,0,0-1.17,3.16c.48,1.36-.55,1.91-1.64,3.12s.71-.67-1.35,1.95A21.58,21.58,0,0,0,12.51,32s-1.75,4.29-2.24,5.07.9,0,1.45-.83,0,.52-.46,1.43.66.11,1.67-2.18,1.56-3.48,2-4.26.46-1.91,1.6-2.86a4.91,4.91,0,0,0,1.45-1.77c.49-.72,1.43-1.11,1.73-2.28s-.23-.85.89-1.61,1.86-2.91,2.37-3.6.91-.27,1.58-1.31a17.86,17.86,0,0,1,3-3.3c.55-.38.17-.06,1.16-.18s.86-.54.68.82a11.42,11.42,0,0,1-1.53,4.08A14.6,14.6,0,0,1,26,21.72a5.59,5.59,0,0,0-.45.57A10.25,10.25,0,0,0,23.26,22a8.91,8.91,0,0,0,2,.51l-.61.51-.22.18a27.74,27.74,0,0,0-3.09.39c.05.1,2,0,2.7,0a6.67,6.67,0,0,0-.81,1s-3.09.42-3.09.65L23,24.88c-.15.19-.33.42-.56.69a8,8,0,0,0-.5.65c-.58.09-3,.43-3,.64l2.77-.33c-.35.54-.66,1.11-1,1.66a11.81,11.81,0,0,0-2.85.62l2.68-.32a10.88,10.88,0,0,1-1.05,1.56,4.16,4.16,0,0,1-.42.42c-1.29,1.12-1,1.21,0,.25a17.6,17.6,0,0,0,3-4.2,9,9,0,0,1,1.28-1.73,16.38,16.38,0,0,0,.24,1.9,18.13,18.13,0,0,0,0-2.1,8.1,8.1,0,0,1,.93-.83l.49,2.53c.2-.07-.14-2.25-.22-2.73a1.69,1.69,0,0,1,.4-.22c.34-.06.89-1.4.62-.73s.39.47.88.49.8.12,1.3-1.12A4.84,4.84,0,0,1,30,19.67c.8-.62,1.46-1.3.18-.63s-1.31.83-1,.1A15.12,15.12,0,0,0,30.56,16c.14-1,.41-.82.65-.42s.43.09,1.48.25,2-.22,1.24-.5-2.48-.51-2.8-.69-.69,0-.51-.4.37-1.14,1.16-.92,3.21,1.08,5.3-.09,2.27-1.68,1.17-1.06.38-.76-1.1,0a5,5,0,0,1-4.65-.49c-1.45-.8,0-.65.71-.41s3.44,1,5.38-1-.32-.08-1.25.38a7.33,7.33,0,0,1-4.57-.08c-.72-.49-1.5-1.37,0-1.33a21.59,21.59,0,0,1,3.14.31c1,.14,1.54.16,3.15-.79s2.22-1.37,2-.31-.86,3.77-2.83,5.3-.54.92.56,0A11.66,11.66,0,0,0,41.9,8.45c.6-2.16,1.05-2.36,2.24-2.82S45.08,4.23,42.8,5.17Z"/><path class="cls-8" d="M39.43,3.12c-.24.86-1.19,4.19-.59,2.55s1.37-3,.87-1.38-.38,3.38.56.48,1-3.72.71-3.77-3.23,2-2.71,2.26C38.27,3.26,39.68,2.26,39.43,3.12Z"/><path class="cls-9" d="M8.18,41.74s2-1.39,2-.74.3.29,1.83-.82a37.76,37.76,0,0,0,4.52-4.52C18,34,19.8,33.27,18.45,34.91S20,34,21.21,32a12.65,12.65,0,0,1,3.23-3.58,6.57,6.57,0,0,0,2.35-2.52,12.92,12.92,0,0,1,2-2.76c.94-1.23,2.58-2.29,2.58-3.52s-1.05-1.35.41-1.7,2.88-.43,3.35-1.51,1.41-1.54.64-1.78-.06,0,1.18-1,2.34-1.27,2.17-2-1.88.29-.59-.7,1.33-2.61,1.16-2.51S41.46,6.85,41.46,8s-3.17,6.11-3.17,6.11.62,1-.69,1.92c0,0-2.52,4.41-3.88,5.06s-3.34,5.59-5.76,7.1-6,5.72-6,5.72-3.57,3.9-3.87,4.81S16,39.88,15.52,40s-5.75,1.5-6.34,5.46L7.3,46.75l-3.4-.82S3.61,44.36,8.18,41.74Z"/><path class="cls-6" d="M11.81,8.84a3.17,3.17,0,0,1,3.56,1.94c1.35,2.56,2.35,2.45,2.35,2.45l4.16,5.65,1.95,1.58,7.09,5.11,5.66,1.18,8.32,2.71S47,30.89,46.35,32s-9.65-.47-9.65-.47,9.5,2.33,10.17,5.11-.56,3.89-4,2S32.75,36,32.75,36l1.19,3.25s3.79,7.51,3.74,9.24S35,50.23,34,47.34s-3.14-4.61-4.08-6.59a3.71,3.71,0,0,0-2.62-2.2,3,3,0,0,1-4.35-2.38c-.88-4-2.5-13.82-2.5-13.82l-5.71-6.51A35.82,35.82,0,0,0,12,12.91C11.19,12.28,8.15,10.12,11.81,8.84Z"/><path class="cls-10" d="M21.12,20.77s.87-.38-.39-1.84-3.85-6-4.66-5.19-2.4,1.13-.19,3.85S20.71,22.7,21.12,20.77Z"/><path class="cls-11" d="M14.79,14A1.68,1.68,0,0,0,15,11.9c-.81-1.17-2.38-3.79-3.49-2.29s-1.05,2.12.21,3.08S14.4,14.63,14.79,14Z"/><path class="cls-11" d="M27.08,25.57s-.26,1.94,1.35,2,2.23-.43,4,.37,1.77,0,2.6-.16a8.26,8.26,0,0,1,3.51.57c1.51.48,8.9,3.07,7.24,3.73s-3.52,0-4.17,0A17.24,17.24,0,0,1,37,31.66a6.07,6.07,0,0,0-2.44-.42c-.59,0-3.17.09-2,.69s6.44.67,10.35,3,5.08,3.23,3.81,4.46-3.75-.68-4.91-1.4-4.32-1-5.36-1.3-2.16.37-3.18-.07a8.1,8.1,0,0,1-2-1.42s-1.19-.38-1,.82,1.62,2.83,3.44,5.52,4.07,8,2.18,8.19-1.27-3.14-2.81-3.94-1.94-3-3.21-4.38a14.4,14.4,0,0,1-2.14-3.29s.68-2.4,0-3.28a7.7,7.7,0,0,1-1.25-6.09A25.88,25.88,0,0,0,27.08,25.57Z"/><path class="cls-11" d="M26.89,37.81a1.91,1.91,0,0,0-.55-2.5c-1.39-1-2.1-4.47-1.52-6.54s2.24-1.42,1.87-.34,1.37-2,.09-3.34-4.08-5.7-4.81-4.8-1.79.53-.81,6.16S23.3,38.29,24,38.57,26.65,38.94,26.89,37.81Z"/><path class="cls-8" d="M36.92,50.06c3.07-1.22-.26-6.14-1.16-7.55s-.92-.59-.08.8,2.34,5.21,1,5.89-3-2.45-1.86-3.18-.06-.81-.95-.56S31.44,43.68,32.55,43s.84-1.31-.42-.77a1.26,1.26,0,0,1-1.33-2.12c1.2-1.26,0-.9-1.06-.43s-1.27-1.73-1.27-1.73c1.55-1.37-.07-3.68-.07-3.68,2.33-.5,4.46-1.78,4.7-3.57s-.56-1.22-.56-1.22c-.08,2.82-5.09,4-5.35,3.69a7.68,7.68,0,0,1-.66-3.51c.2-1,.87-1.73-.21-1.18s-.73,4.41-.12,5.26a10.78,10.78,0,0,1,1.54,2.64c.19.73-1.54,2.39-2.48,2s-.47-1,.38-1.83-.31-.93-1.21-.27-.89-.62-1.35-2.54-.75-4.64-1.17-6.53-1.13-4.72-.61-5.43,1.29-2.65-.18-1-4.38-3.54-5.07-4.57-.81-.92-.19-2a2.88,2.88,0,0,0,.21-.44h0s.5-1,1.32.07,4.77,6.28,4.49,5.07-2.36-3-4.24-5.77c0,0-.8-1.3-2,0a4,4,0,0,0-.42.31c-1.1.93-1.56-.08-2.38-.89s-1.21-.82-1.21-1.75,1.55-1.38,1.55-1.38c.72-.31,1,.56,1.88,1.55s1.13.67.32-.9-1.44-4.86-4.51-2.42-.09,5.61.53,6.28,2.2.67,3.41,2.85S19.56,22.46,19.6,23a43,43,0,0,0,1.27,5.37c.7,2.32.71,3,1.46,7.64s3.57,3.43,4.32,3.18,1.61-.4,2.07,1.23,1.51,1.25,2.13,3.25,2.06,2.13,2.34,2.75S33.85,51.29,36.92,50.06Z"/><path class="cls-8" d="M45.93,35.94c1.19,1,1.3,2.21.72,2.9s-1.25.87-1.84.42-2.08-.81-1.33-2.72c0,0,.06-1.1-.94-.11s-3,1.07-2.81.17,0-1.91-.77-1-2.33,1-2.53.33-.48-3-1.09-1.72-.3,1.91-1.58,1.52-1.51-1.5-2.65-.48,3,5.3,3.16,3.62c0,0-1.61-2.8.42-2a1.36,1.36,0,0,0,.93-.25c.34-.32,1.21,1.1,3.07.8s1.18.43,3.29,1.23,3.64,2.77,4.78,1.76,2.2-3.26-.19-5S44.74,34.94,45.93,35.94Z"/><path class="cls-8" d="M37.42,26.44a8.4,8.4,0,0,0-4.08-1.28,17.15,17.15,0,0,1-6.7-3.52c-1.59-1.52-3.95-2.13-3.06-1.23s4.35,3.27,5.18,4.11,0,1.07-.77,1.51.77,1,1.63.8,2.8-.08,3.3.68.09-.37,1.53-.51,6,1.34,7.64,1.81,4.09,1.45,4.14,2.66-3.78.9-3.83-.35-.58-1.67-.88-.52-2,1.24-2.08.51-.29-2.25-.64-1.09-2.13,1.76-2.47.78-.54-1.87-1-.91A2.62,2.62,0,0,1,33.41,31c-.11,0-.51.23.15.36a5.36,5.36,0,0,0,1.89.17c.67-.15.47.93,2.66.73s2.45.38,3.74.2,4.34,1,4.85-.23-.09-3-3.1-3.82S39.09,27.44,37.42,26.44Z"/><path class="cls-12" d="M26.69,38s-1.67.39-1-1.14-.38-1.36-1.11-1.55S23,31.69,23,28.59s.91-2.93-.37-4.87-1.1-2.79-1.1-2.79L20.4,22s.45,4.57.56,4.76,2,7.72,2,7.84.36,3,.44,3.16S24.42,40.56,26.69,38Z"/><path class="cls-12" d="M26.89,28.52s1.07-.2.71,1.23,1.29,2.67,3.17.85,2.16-1.94,3.28-1.21,1.56-.46,2.73.19,1.29.15,1.65,0,.69-.45,1.56.46,1.46-1,2.76.64a3.38,3.38,0,0,0,3,1.36s-1,.47-4.35-.15-6-.85-6-.85a12.84,12.84,0,0,0-2.8.41c-.82.33-4.15,2.68-5,2.3S25.29,31,26.89,28.52Z"/><path class="cls-12" d="M46.91,38.38a1.87,1.87,0,0,1-2.58-.68c-1-1.6-.56-2.14-2.16-2.11s-2.11-1.6-3.28-1.2-1.5,0-2.74-.47-1.31,0-2.7.18-3.17,1.16-1.74,1.51,3.81.67,5.58,1.21,2.06-.48,4.54,1.12S47,40.6,46.91,38.38Z"/><path class="cls-12" d="M29.14,36.45a2.48,2.48,0,0,0,.94,2.07c1,.71,1.54.63,1.28,1.73s2.38.79,2,2.62S36.48,44.38,35.1,47c0,0-.45,1.88,1.1,2.38s-2.18.45-2.36-2.79a10.09,10.09,0,0,1-2.65-3.78c-.77-2.19-3.09-3.42-3.18-4.55S29.14,36.45,29.14,36.45Z"/><path class="cls-12" d="M14.69,14.18a11.29,11.29,0,0,0-1.78-2.66c-1.24-1.41-2.14-2.57-1.84-1.18S12,14.55,14.69,14.18Z"/><path class="cls-13" d="M21.12,20.77s-.31.14-1.64-1.57-3.05-5-4-4.39,2.27,4.91,3.31,6.07S21.12,20.77,21.12,20.77Z"/><path class="cls-4" d="M6.72,42.06s5.57-6.52,6.39-8.34S17.46,26,17.46,26l5.16-7.28s3.29-3.93,3.46-4.22,3.76-3.23,3.88-3.47,1.87-2.23,1.87-2.23,1.36-2.19,2.7-2.52a3.34,3.34,0,0,0,1.94-1.94s3.32-2.54,3.75-1.7-.54,3.52-.54,3.52,2.55-.52,2.66.12S39.73,13,38.22,14.21c0,0,.48.67-.36,1.46s-1.94,3.73-3.8,5-3.21,4.92-5.85,6.93a93.41,93.41,0,0,0-7.59,7.3s-2.23,5-3.46,5.09-5,1.74-5,1.74A5,5,0,0,0,8.89,46C8.67,49.35,3,46,3,46Z"/><path class="cls-14" d="M29.37,15.13S29,13.8,28,15.13a22.42,22.42,0,0,1-4.28,4.51c-1.7,1.23-1.35,2.41-2.18,3.29A31.9,31.9,0,0,0,19.43,26a33.17,33.17,0,0,1-2.5,3.46c-1.23,1.41-1.35,2.7-2.41,4.87s-3.66,4.61-3.46,4-2.17,2.57-3.23,3.42S2.67,45.16,3.9,45.93s3.4.76,3.64.88a3.94,3.94,0,0,0,1.15,0s.93-5,4-5.75,5.28-1.59,6.22-3.64a12.58,12.58,0,0,1,3.41-3.87A28.16,28.16,0,0,1,28,28.15a15.63,15.63,0,0,0,4.81-6.34,12.38,12.38,0,0,0,3.85-4.59l1.24-1.55s.84-.39.4-1.94A8.91,8.91,0,0,0,41.57,8c.53-3.75.77-2.23.77-2.23S38.58,6.5,38.58,7s-1.82,1.76-3.4,1.23-1.76.12-1.47.47,3,.7,3,.7-3.11-.42-3.34.46S35,11,35,11v.53s-3-.22-2,.39.57,1,.57,1l-.17.68s-1.7-.21-1.7.58,3.16.62,3,1.2-2.6,1.43-3.35,1A20.51,20.51,0,0,1,29.37,15.13Z"/><path d="M36.62,17.22a7.71,7.71,0,0,1-3.09,3.32c-1.21.75-1.35,1.52-2.17,3.17s-2.94,4-4,4.44-1.81,1.63-3.42,3-1.35,1.63-3.07,3.24-4,3.84-4.42,4.08.94-.17,1.42-.49-.29,1.69-1.55,1.65.56-.9-1.26,0a32.53,32.53,0,0,0-4.86,2.87c-.22.27-.4,1.16-.74.79s-.56-.46-1.16.71S6.94,46.33,7,45.6s-1.11.26-.57-.53S7.31,43.84,6,45s-2.52.74.1-1,2.88-2.62,2.21-2.59-.74,0,.12-1.54,1.37-2.76.28-1.28a11.76,11.76,0,0,1-2.78,3.06c-1.23.89-1.21,1.18-.84,1.09s0,0-1.34.86S2.15,45,2.07,45.32s-2,1.41-.5,1.34,1.88.05,2.08.5-.13.32,1.27.42,1.14.43,1.27.94.78-.11,1.16.14.59,1.87,1.78.14,1-4.28,1.19-5,0-1.22,2.43-2.12,2.69-1.49,3.37-1.31,1.23.63,2.57-1.58,1.1-2.4,2.43-3.33a7.61,7.61,0,0,0,2.31-2.89A15.94,15.94,0,0,1,25.85,30a9.81,9.81,0,0,1,2.37-1.67,9.43,9.43,0,0,0,3.17-3.39,11.92,11.92,0,0,1,3.23-4.25c1.63-1.14,1.88-3.45,3.24-5C37.86,15.67,37.26,15.78,36.62,17.22Z"/><path d="M42.8,5.17c-2.28.94-3.83,1.44-2.35,1.22s1.6,0,.34.67-3.16,2.46-4.52,2.29S35,8.42,34,8.43s-1.39-.46-.77-1,.72-1,1.84-.26a1.57,1.57,0,0,0,2.55-.56c.67-1,.34-1.85-.15-.92S36.72,7.26,35.93,7s-1.21-.77-.6-.93,1.31.31,1.48-.8.42-1,.78-1.26.55-1.07-.69-.3a7.41,7.41,0,0,0-2,1.67,3.39,3.39,0,0,1-1.42,1,4.74,4.74,0,0,0-1.65,1.38c-.7.78-2.86,2.12-3.56,2.8s-.22-.11-2,1.33-2.93,4.19-3.35,4.85a19.41,19.41,0,0,1-3.46,2.66,2.74,2.74,0,0,0-1.17,3.16c.48,1.36-.55,1.91-1.64,3.12s.71-.67-1.35,1.95A21.58,21.58,0,0,0,12.51,32s-1.75,4.29-2.24,5.07.9,0,1.45-.83,0,.52-.46,1.43.66.11,1.67-2.18,1.56-3.48,2-4.26.46-1.91,1.6-2.86a4.91,4.91,0,0,0,1.45-1.77c.49-.72,1.43-1.11,1.73-2.28s-.23-.85.89-1.61,1.86-2.91,2.37-3.6.91-.27,1.58-1.31a17.86,17.86,0,0,1,3-3.3c.55-.38.17-.06,1.16-.18s.86-.54.68.82a11.42,11.42,0,0,1-1.53,4.08A14.6,14.6,0,0,1,26,21.72a5.59,5.59,0,0,0-.45.57A10.25,10.25,0,0,0,23.26,22a8.91,8.91,0,0,0,2,.51l-.61.51-.22.18a27.74,27.74,0,0,0-3.09.39c.05.1,2,0,2.7,0a6.67,6.67,0,0,0-.81,1s-3.09.42-3.09.65L23,24.88c-.15.19-.33.42-.56.69a8,8,0,0,0-.5.65c-.58.09-3,.43-3,.64l2.77-.33c-.35.54-.66,1.11-1,1.66a11.81,11.81,0,0,0-2.85.62l2.68-.32a10.88,10.88,0,0,1-1.05,1.56,4.16,4.16,0,0,1-.42.42c-1.29,1.12-1,1.21,0,.25a17.6,17.6,0,0,0,3-4.2,9,9,0,0,1,1.28-1.73,16.38,16.38,0,0,0,.24,1.9,18.13,18.13,0,0,0,0-2.1,8.1,8.1,0,0,1,.93-.83l.49,2.53c.2-.07-.14-2.25-.22-2.73a1.69,1.69,0,0,1,.4-.22c.34-.06.89-1.4.62-.73s.39.47.88.49.8.12,1.3-1.12A4.84,4.84,0,0,1,30,19.67c.8-.62,1.46-1.3.18-.63s-1.31.83-1,.1A15.12,15.12,0,0,0,30.56,16c.14-1,.41-.82.65-.42s.43.09,1.48.25,2-.22,1.24-.5-2.48-.51-2.8-.69-.69,0-.51-.4.37-1.14,1.16-.92,3.21,1.08,5.3-.09,2.27-1.68,1.17-1.06.38-.76-1.1,0a5,5,0,0,1-4.65-.49c-1.45-.8,0-.65.71-.41s3.44,1,5.38-1-.32-.08-1.25.38a7.33,7.33,0,0,1-4.57-.08c-.72-.49-1.5-1.37,0-1.33a21.59,21.59,0,0,1,3.14.31c1,.14,1.54.16,3.15-.79s2.22-1.37,2-.31-.86,3.77-2.83,5.3-.54.92.56,0A11.66,11.66,0,0,0,41.9,8.45c.6-2.16,1.05-2.36,2.24-2.82S45.08,4.23,42.8,5.17Z"/><path d="M39.43,3.12c-.24.86-1.19,4.19-.59,2.55s1.37-3,.87-1.38-.38,3.38.56.48,1-3.72.71-3.77-3.23,2-2.71,2.26C38.27,3.26,39.68,2.26,39.43,3.12Z"/><path class="cls-15" d="M8.18,41.74s2-1.39,2-.74.3.29,1.83-.82a37.76,37.76,0,0,0,4.52-4.52C18,34,19.8,33.27,18.45,34.91S20,34,21.21,32a12.65,12.65,0,0,1,3.23-3.58,6.57,6.57,0,0,0,2.35-2.52,12.92,12.92,0,0,1,2-2.76c.94-1.23,2.58-2.29,2.58-3.52s-1.05-1.35.41-1.7,2.88-.43,3.35-1.51,1.41-1.54.64-1.78-.06,0,1.18-1,2.34-1.27,2.17-2-1.88.29-.59-.7,1.33-2.61,1.16-2.51S41.46,6.85,41.46,8s-3.17,6.11-3.17,6.11.62,1-.69,1.92c0,0-2.52,4.41-3.88,5.06s-3.34,5.59-5.76,7.1-6,5.72-6,5.72-3.57,3.9-3.87,4.81S16,39.88,15.52,40s-5.75,1.5-6.34,5.46L7.3,46.75l-3.4-.82S3.61,44.36,8.18,41.74Z"/><path class="cls-4" d="M11.81,8.84a3.17,3.17,0,0,1,3.56,1.94c1.35,2.56,2.35,2.45,2.35,2.45l4.16,5.65,1.95,1.58,7.09,5.11,5.66,1.18,8.32,2.71S47,30.89,46.35,32s-9.65-.47-9.65-.47,9.5,2.33,10.17,5.11-.56,3.89-4,2S32.75,36,32.75,36l1.19,3.25s3.79,7.51,3.74,9.24S35,50.23,34,47.34s-3.14-4.61-4.08-6.59a3.71,3.71,0,0,0-2.62-2.2,3,3,0,0,1-4.35-2.38c-.88-4-2.5-13.82-2.5-13.82l-5.71-6.51A35.82,35.82,0,0,0,12,12.91C11.19,12.28,8.15,10.12,11.81,8.84Z"/><path class="cls-16" d="M21.12,20.77s.87-.38-.39-1.84-3.85-6-4.66-5.19-2.4,1.13-.19,3.85S20.71,22.7,21.12,20.77Z"/><path class="cls-17" d="M14.79,14A1.68,1.68,0,0,0,15,11.9c-.81-1.17-2.38-3.79-3.49-2.29s-1.05,2.12.21,3.08S14.4,14.63,14.79,14Z"/><path class="cls-17" d="M27.08,25.57s-.26,1.94,1.35,2,2.23-.43,4,.37,1.77,0,2.6-.16a8.26,8.26,0,0,1,3.51.57c1.51.48,8.9,3.07,7.24,3.73s-3.52,0-4.17,0A17.24,17.24,0,0,1,37,31.66a6.07,6.07,0,0,0-2.44-.42c-.59,0-3.17.09-2,.69s6.44.67,10.35,3,5.08,3.23,3.81,4.46-3.75-.68-4.91-1.4-4.32-1-5.36-1.3-2.16.37-3.18-.07a8.1,8.1,0,0,1-2-1.42s-1.19-.38-1,.82,1.62,2.83,3.44,5.52,4.07,8,2.18,8.19-1.27-3.14-2.81-3.94-1.94-3-3.21-4.38a14.4,14.4,0,0,1-2.14-3.29s.68-2.4,0-3.28a7.7,7.7,0,0,1-1.25-6.09A25.88,25.88,0,0,0,27.08,25.57Z"/><path class="cls-17" d="M26.89,37.81a1.91,1.91,0,0,0-.55-2.5c-1.39-1-2.1-4.47-1.52-6.54s2.24-1.42,1.87-.34,1.37-2,.09-3.34-4.08-5.7-4.81-4.8-1.79.53-.81,6.16S23.3,38.29,24,38.57,26.65,38.94,26.89,37.81Z"/><path d="M36.92,50.06c3.07-1.22-.26-6.14-1.16-7.55s-.92-.59-.08.8,2.34,5.21,1,5.89-3-2.45-1.86-3.18-.06-.81-.95-.56S31.44,43.68,32.55,43s.84-1.31-.42-.77a1.26,1.26,0,0,1-1.33-2.12c1.2-1.26,0-.9-1.06-.43s-1.27-1.73-1.27-1.73c1.55-1.37-.07-3.68-.07-3.68,2.33-.5,4.46-1.78,4.7-3.57s-.56-1.22-.56-1.22c-.08,2.82-5.09,4-5.35,3.69a7.68,7.68,0,0,1-.66-3.51c.2-1,.87-1.73-.21-1.18s-.73,4.41-.12,5.26a10.78,10.78,0,0,1,1.54,2.64c.19.73-1.54,2.39-2.48,2s-.47-1,.38-1.83-.31-.93-1.21-.27-.89-.62-1.35-2.54-.75-4.64-1.17-6.53-1.13-4.72-.61-5.43,1.29-2.65-.18-1-4.38-3.54-5.07-4.57-.81-.92-.19-2a2.88,2.88,0,0,0,.21-.44h0s.5-1,1.32.07,4.77,6.28,4.49,5.07-2.36-3-4.24-5.77c0,0-.8-1.3-2,0a4,4,0,0,0-.42.31c-1.1.93-1.56-.08-2.38-.89s-1.21-.82-1.21-1.75,1.55-1.38,1.55-1.38c.72-.31,1,.56,1.88,1.55s1.13.67.32-.9-1.44-4.86-4.51-2.42-.09,5.61.53,6.28,2.2.67,3.41,2.85S19.56,22.46,19.6,23a43,43,0,0,0,1.27,5.37c.7,2.32.71,3,1.46,7.64s3.57,3.43,4.32,3.18,1.61-.4,2.07,1.23,1.51,1.25,2.13,3.25,2.06,2.13,2.34,2.75S33.85,51.29,36.92,50.06Z"/><path d="M45.93,35.94c1.19,1,1.3,2.21.72,2.9s-1.25.87-1.84.42-2.08-.81-1.33-2.72c0,0,.06-1.1-.94-.11s-3,1.07-2.81.17,0-1.91-.77-1-2.33,1-2.53.33-.48-3-1.09-1.72-.3,1.91-1.58,1.52-1.51-1.5-2.65-.48,3,5.3,3.16,3.62c0,0-1.61-2.8.42-2a1.36,1.36,0,0,0,.93-.25c.34-.32,1.21,1.1,3.07.8s1.18.43,3.29,1.23,3.64,2.77,4.78,1.76,2.2-3.26-.19-5S44.74,34.94,45.93,35.94Z"/><path d="M37.42,26.44a8.4,8.4,0,0,0-4.08-1.28,17.15,17.15,0,0,1-6.7-3.52c-1.59-1.52-3.95-2.13-3.06-1.23s4.35,3.27,5.18,4.11,0,1.07-.77,1.51.77,1,1.63.8,2.8-.08,3.3.68.09-.37,1.53-.51,6,1.34,7.64,1.81,4.09,1.45,4.14,2.66-3.78.9-3.83-.35-.58-1.67-.88-.52-2,1.24-2.08.51-.29-2.25-.64-1.09-2.13,1.76-2.47.78-.54-1.87-1-.91A2.62,2.62,0,0,1,33.41,31c-.11,0-.51.23.15.36a5.36,5.36,0,0,0,1.89.17c.67-.15.47.93,2.66.73s2.45.38,3.74.2,4.34,1,4.85-.23-.09-3-3.1-3.82S39.09,27.44,37.42,26.44Z"/><path class="cls-18" d="M26.69,38s-1.67.39-1-1.14-.38-1.36-1.11-1.55S23,31.69,23,28.59s.91-2.93-.37-4.87-1.1-2.79-1.1-2.79L20.4,22s.45,4.57.56,4.76,2,7.72,2,7.84.36,3,.44,3.16S24.42,40.56,26.69,38Z"/><path class="cls-18" d="M26.89,28.52s1.07-.2.71,1.23,1.29,2.67,3.17.85,2.16-1.94,3.28-1.21,1.56-.46,2.73.19,1.29.15,1.65,0,.69-.45,1.56.46,1.46-1,2.76.64a3.38,3.38,0,0,0,3,1.36s-1,.47-4.35-.15-6-.85-6-.85a12.84,12.84,0,0,0-2.8.41c-.82.33-4.15,2.68-5,2.3S25.29,31,26.89,28.52Z"/><path class="cls-18" d="M46.91,38.38a1.87,1.87,0,0,1-2.58-.68c-1-1.6-.56-2.14-2.16-2.11s-2.11-1.6-3.28-1.2-1.5,0-2.74-.47-1.31,0-2.7.18-3.17,1.16-1.74,1.51,3.81.67,5.58,1.21,2.06-.48,4.54,1.12S47,40.6,46.91,38.38Z"/><path class="cls-18" d="M29.14,36.45a2.48,2.48,0,0,0,.94,2.07c1,.71,1.54.63,1.28,1.73s2.38.79,2,2.62S36.48,44.38,35.1,47c0,0-.45,1.88,1.1,2.38s-2.18.45-2.36-2.79a10.09,10.09,0,0,1-2.65-3.78c-.77-2.19-3.09-3.42-3.18-4.55S29.14,36.45,29.14,36.45Z"/><path class="cls-18" d="M14.69,14.18a11.29,11.29,0,0,0-1.78-2.66c-1.24-1.41-2.14-2.57-1.84-1.18S12,14.55,14.69,14.18Z"/><path class="cls-19" d="M21.12,20.77s-.31.14-1.64-1.57-3.05-5-4-4.39,2.27,4.91,3.31,6.07S21.12,20.77,21.12,20.77Z"/></g></g></g></svg>